<svg xmlnsev="http://www.w3.org/2001/xml-events" xmlns="http://www.w3.org/2000/svg" xmlns:xlink="http://www.w3.org/1999/xlink" version="1.1" id="Layer_1" x="0px" y="0px" style="overflow: hidden; touch-action: none; user-select: none; -webkit-user-drag: none; -webkit-tap-highlight-color: rgba(0, 0, 0, 0);" xml:space="preserve" xmlnsev="http://www.w3.org/2001/xml-events"><g id="viewport-20221016121612102" class="svg-pan-zoom_viewport" transform="matrix(0.6105366650618413,0,0,0.6105366650618413,43.06917774495321,0)" style="transform: matrix(0.610537, 0, 0, 0.610537, 43.0692, 0);">
<style type="text/css">
	.st0{display:none;opacity:0.1;enable-background:new    ;}
	.st1{display:inline;fill-rule:evenodd;clip-rule:evenodd;fill:#89898E;}
	.st2{fill:none;stroke:#000000;stroke-width:17.6141;stroke-miterlimit:4.605;}
	.st3{fill:none;stroke:#FFFFFF;stroke-width:2.0722;stroke-miterlimit:4.605;}
	.st4{display:none;}
	.st5{display:inline;}
	.st6{fill:#7D7D7D;}
	.st7{fill:#89898E;}
	.st8{opacity:0.2;fill:#89898E;enable-background:new    ;}
	.st9{display:inline;fill:none;stroke:#1A171B;stroke-width:1.1282;stroke-miterlimit:4.605;}
  .section-2189:hover{stroke:#e10600;} 
 .section-2189{fill:;} 
  .section-2192:hover{stroke:#e10600;} 
 .section-2192{fill:;} 
   .section-2190:hover{stroke:#e10600;} 
 .section-2190{fill:;} 
  .section-2189:hover{stroke:#e10600;} 
 .section-2189{fill:;} 
  .section-2192:hover{stroke:#e10600;} 
 .section-2192{fill:;} 
   .section-2190:hover{stroke:#e10600;} 
 .section-2190{fill:;} 
</style>
<g id="GA" class="st0">
	<path class="st1" d="M957.8,466.7l245.8,4.1l-55.5,212.5L889.7,952.7l-616.5,4.1L131.6,886l1.4-200l56.9-1.4l8.2,125l41.7,62.5   l294.4,16.7l115.4,5.6l48.6-30.6l65.3-15.3l25-37.5l-4.1-62.5l24.9-47.2L950.9,643l54.1-30.6l-19.4-47.3L957.8,466.7z"></path>
</g>
<g id="track">
	<g id="Track-2">
		<g id="Track_OL">
			<path class="st2" d="M760.5,847.8L760.5,847.8c16.8-8,25.4-42.1,27.9-61v-0.2c0-0.4,6.3-59.1,16.1-74.9     c17.7-28.6,56.9-41.4,65.2-44.4c4.8-1.7,22.7-8.2,102.5-37.1l0.3-0.1h0.3c2.5-0.8,24.4-8.1,30.2-24.6c2.8-8-0.4-25-7.9-45.2     c-2.2-6-4.9-12.4-7.9-18.7l-22.8-51.4l-1.8-4.2c-9.7-26.1,1-41.8,2.3-43.5l0.3-0.4c1.5-2.2,64.4-92.7,76.3-102.8     c6.8-5.8,14.7-6.4,22.3-7c10.9-0.9,19-2.3,24.6-12.1s-12.2-169.7-12.2-169.7c-4.2-31.1-15.7-45.5-39.4-49.7     c-33-5.8-55,21.4-55.9,22.5l-51.5,67c-7.7,10.1-34,28.3-48.4,31.8l-21.9,5.3c-35.4,8.5-135.3,33-135.3,33     c-29.3,7.7-98.1,25.9-160.3,25.4c-65.4-0.5-83,18.4-96.5,39.4c-9,14.1-36.6,87-36.6,87l-0.2,0.4c-5.4,12.4-24,26.1-47,19.1     c-39.1-11.8-40.5-71.1-36.2-100.5c0.5-3.5,5.5-170.2-0.2-197.4C327.6,43.1,254.1,3.4,236.8,40c-1.9,61.8,1.2,201.4,2.1,209.4v0.7     L238,526.8L234.1,774v0.2c-0.2,5.6,0.8,11.2,2.8,16.5c1.8,4.9,4.6,9.4,8.1,13.2c9.6,10.5,24.9,15.9,45.3,16     c16.9,0,30.2-4.7,39.5-14.1c13.9-14.1,14-34.4,14-35.2c0-0.2,0.6-160.4,14.3-212.8c9.9-37.7,80.6-44.3,96.5,27.9     c7.9,36-5.4,86.9-18,137.4c-12,47.9-14.4,76.3-0.2,96c24.2,31.3,278.6,34.3,278.6,34.3h0.6h0.6     C720.3,854.3,740.8,857.2,760.5,847.8z"></path>
			<path class="st3" d="M760.5,847.8L760.5,847.8c16.8-8,25.4-42.1,27.9-61v-0.2c0-0.4,6.3-59.1,16.1-74.9     c17.7-28.6,56.9-41.4,65.2-44.4c4.8-1.7,22.7-8.2,102.5-37.1l0.3-0.1h0.3c2.5-0.8,24.4-8.1,30.2-24.6c2.8-8-0.4-25-7.9-45.2     c-2.2-6-4.9-12.4-7.9-18.7l-22.8-51.4l-1.8-4.2c-9.7-26.1,1-41.8,2.3-43.5l0.3-0.4c1.5-2.2,64.4-92.7,76.3-102.8     c6.8-5.8,14.7-6.4,22.3-7c10.9-0.9,19-2.3,24.6-12.1s-12.2-169.7-12.2-169.7c-4.2-31.1-15.7-45.5-39.4-49.7     c-33-5.8-55,21.4-55.9,22.5l-51.5,67c-7.7,10.1-34,28.3-48.4,31.8l-21.9,5.3c-35.4,8.5-135.3,33-135.3,33     c-29.3,7.7-98.1,25.9-160.3,25.4c-65.4-0.5-83,18.4-96.5,39.4c-9,14.1-36.6,87-36.6,87l-0.2,0.4c-5.4,12.4-24,26.1-47,19.1     c-39.1-11.8-40.5-71.1-36.2-100.5c0.5-3.5,5.5-170.2-0.2-197.4C327.6,43.1,254.1,3.4,236.8,40c-1.9,61.8,1.2,201.4,2.1,209.4v0.7     L238,526.8L234.1,774v0.2c-0.2,5.6,0.8,11.2,2.8,16.5c1.8,4.9,4.6,9.4,8.1,13.2c9.6,10.5,24.9,15.9,45.3,16     c16.9,0,30.2-4.7,39.5-14.1c13.9-14.1,14-34.4,14-35.2c0-0.2,0.6-160.4,14.3-212.8c9.9-37.7,80.6-44.3,96.5,27.9     c7.9,36-5.4,86.9-18,137.4c-12,47.9-14.4,76.3-0.2,96c24.2,31.3,278.6,34.3,278.6,34.3h0.6h0.6     C720.3,854.3,740.8,857.2,760.5,847.8z"></path>
		</g>
		<g id="Track-3">
			<path class="st2" d="M760.5,847.8L760.5,847.8c16.8-8,25.4-42.1,27.9-61v-0.2c0-0.4,6.3-59.1,16.1-74.9     c17.7-28.6,56.9-41.4,65.2-44.4c4.8-1.7,22.7-8.2,102.5-37.1l0.3-0.1h0.3c2.5-0.8,24.4-8.1,30.2-24.6c2.8-8-0.4-25-7.9-45.2     c-2.2-6-4.9-12.4-7.9-18.7l-22.8-51.4l-1.8-4.2c-9.7-26.1,1-41.8,2.3-43.5l0.3-0.4c1.5-2.2,64.4-92.7,76.3-102.8     c6.8-5.8,14.7-6.4,22.3-7c10.9-0.9,19-2.3,24.6-12.1s-12.2-169.7-12.2-169.7c-4.2-31.1-15.7-45.5-39.4-49.7     c-33-5.8-55,21.4-55.9,22.5l-51.5,67c-7.7,10.1-34,28.3-48.4,31.8l-21.9,5.3c-35.4,8.5-135.3,33-135.3,33     c-29.3,7.7-98.1,25.9-160.3,25.4c-65.4-0.5-83,18.4-96.5,39.4c-9,14.1-36.6,87-36.6,87l-0.2,0.4c-5.4,12.4-24,26.1-47,19.1     c-39.1-11.8-40.5-71.1-36.2-100.5c0.5-3.5,5.5-170.2-0.2-197.4C327.6,43.1,254.1,3.4,236.8,40c-1.9,61.8,1.2,201.4,2.1,209.4v0.7     L238,526.8L234.1,774v0.2c-0.2,5.6,0.8,11.2,2.8,16.5c1.8,4.9,4.6,9.4,8.1,13.2c9.6,10.5,24.9,15.9,45.3,16     c16.9,0,30.2-4.7,39.5-14.1c13.9-14.1,14-34.4,14-35.2c0-0.2,0.6-160.4,14.3-212.8c9.9-37.7,80.6-44.3,96.5,27.9     c7.9,36-5.4,86.9-18,137.4c-12,47.9-14.4,76.3-0.2,96c24.2,31.3,278.6,34.3,278.6,34.3h0.6h0.6     C720.3,854.3,740.8,857.2,760.5,847.8z"></path>
			<path class="st3" d="M760.5,847.8L760.5,847.8c16.8-8,25.4-42.1,27.9-61v-0.2c0-0.4,6.3-59.1,16.1-74.9     c17.7-28.6,56.9-41.4,65.2-44.4c4.8-1.7,22.7-8.2,102.5-37.1l0.3-0.1h0.3c2.5-0.8,24.4-8.1,30.2-24.6c2.8-8-0.4-25-7.9-45.2     c-2.2-6-4.9-12.4-7.9-18.7l-22.8-51.4l-1.8-4.2c-9.7-26.1,1-41.8,2.3-43.5l0.3-0.4c1.5-2.2,64.4-92.7,76.3-102.8     c6.8-5.8,14.7-6.4,22.3-7c10.9-0.9,19-2.3,24.6-12.1s-12.2-169.7-12.2-169.7c-4.2-31.1-15.7-45.5-39.4-49.7     c-33-5.8-55,21.4-55.9,22.5l-51.5,67c-7.7,10.1-34,28.3-48.4,31.8l-21.9,5.3c-35.4,8.5-135.3,33-135.3,33     c-29.3,7.7-98.1,25.9-160.3,25.4c-65.4-0.5-83,18.4-96.5,39.4c-9,14.1-36.6,87-36.6,87l-0.2,0.4c-5.4,12.4-24,26.1-47,19.1     c-39.1-11.8-40.5-71.1-36.2-100.5c0.5-3.5,5.5-170.2-0.2-197.4C327.6,43.1,254.1,3.4,236.8,40c-1.9,61.8,1.2,201.4,2.1,209.4v0.7     L238,526.8L234.1,774v0.2c-0.2,5.6,0.8,11.2,2.8,16.5c1.8,4.9,4.6,9.4,8.1,13.2c9.6,10.5,24.9,15.9,45.3,16     c16.9,0,30.2-4.7,39.5-14.1c13.9-14.1,14-34.4,14-35.2c0-0.2,0.6-160.4,14.3-212.8c9.9-37.7,80.6-44.3,96.5,27.9     c7.9,36-5.4,86.9-18,137.4c-12,47.9-14.4,76.3-0.2,96c24.2,31.3,278.6,34.3,278.6,34.3h0.6h0.6     C720.3,854.3,740.8,857.2,760.5,847.8z"></path>
		</g>
	</g>
</g>
<g id="arrow">
	<g>
		<path d="M283.7,273.4l-7-7c-0.3-0.3-0.7-0.5-1.2-0.5c-0.4,0-0.9,0.2-1.2,0.5l-7.3,6.9l-2.2-2.3l7.3-6.9c0.9-0.9,2.1-1.4,3.4-1.4    s2.5,0.5,3.4,1.4l7.1,7L283.7,273.4z"></path>
		<path d="M283.5,294.9l-7.1-7c-0.3-0.3-0.7-0.5-1.2-0.5c-0.4,0-0.9,0.2-1.2,0.5l-7.3,6.9l-2.2-2.4l7.3-6.9c0.9-0.9,2.2-1.4,3.4-1.4    c1.3,0,2.5,0.5,3.4,1.4l7.1,7L283.5,294.9z"></path>
		<path d="M283.6,284.1l-7.1-7c-0.3-0.3-0.7-0.5-1.2-0.5c-0.4,0-0.9,0.2-1.2,0.5l-7.3,6.9l-2.2-2.3l7.3-6.9c0.9-0.9,2.1-1.4,3.4-1.4    s2.5,0.5,3.4,1.4l7.1,7L283.6,284.1z"></path>
	</g>
</g>
<g id="start" class="st4">
	<g class="st5">
		<rect x="270.7" y="635" transform="matrix(9.248904e-03 -1 1 9.248904e-03 -366.84 906.9064)" width="7.1" height="7.1"></rect>
		<rect x="278" y="628.1" transform="matrix(9.248904e-03 -1 1 9.248904e-03 -352.6676 907.2966)" width="7.1" height="7.1"></rect>
		<rect x="263.7" y="627.8" transform="matrix(9.248904e-03 -1 1 9.248904e-03 -366.518 892.8024)" width="7.1" height="7.1"></rect>
		<rect x="277.9" y="642.1" transform="matrix(9.248904e-03 -1 1 9.248904e-03 -366.866 921.1147)" width="7.1" height="7.1"></rect>
		<rect x="263.6" y="641.9" transform="matrix(9.248904e-03 -1 1 9.248904e-03 -380.833 906.6186)" width="7.1" height="7.1"></rect>
		<rect x="270.9" y="620.9" transform="matrix(9.248904e-03 -1 1 9.248904e-03 -352.5431 893.0745)" width="7.1" height="7.1"></rect>
		<rect x="278.2" y="613.8" transform="matrix(9.248904e-03 -1 1 9.248904e-03 -338.1562 893.3324)" width="7.1" height="7.1"></rect>
		<rect x="263.8" y="613.8" transform="matrix(9.248904e-03 -1 1 9.248904e-03 -352.4369 878.9498)" width="7.1" height="7.1"></rect>
	</g>
</g>
<g id="grandstands">
	<g id="section-2190"><g id="section-2190"><rect id="Gold_4" x="180.7" y="69.2" class="st6 section-2190" width="23.6" height="82.7" data-toggle="svg-tooltip" data-placement="top" title="Gold 4 " data-hover-color="#e10600" data-fill-color="" data-categories="[&quot;f1e&quot;, &quot;haas&quot;, &quot;4-Days&quot;, &quot;oracle&quot;]" style="fill: rgb(125, 125, 125);" stroke-width="0"></rect></g></g>
	<rect id="Gold_3" x="180.7" y="199.2" class="st7" width="23.6" height="51.2"></rect>
	<g id="section-2189"><g id="section-2189"><rect id="Super_Gold" x="180.7" y="300" class="st6 section-2189 red-fill" width="23.6" height="231.6" data-toggle="svg-tooltip" data-placement="top" title="Super Gold Grandstand" data-hover-color="#e10600" data-fill-color="" data-categories="[&quot;f1e&quot;, &quot;4-Days&quot;, &quot;oracle&quot;, &quot;hospitality&quot;, &quot;amex&quot;, &quot;amc&quot;, &quot;champions club&quot;, &quot;rt-club&quot;, &quot;3-Days&quot;, &quot;vistajet&quot;]" stroke-width="0" style="fill: rgb(125, 125, 125);"></rect></g></g>
	<rect id="Gold_1" x="180.7" y="535.9" class="st8" width="23.6" height="47.1"></rect>
	<rect id="Gold_2" x="180.7" y="586.8" class="st8" width="23.6" height="27.1"></rect>
	<rect id="Silver_2" x="180.7" y="618.2" class="st7" width="23.6" height="50.4"></rect>
	<rect id="Grid" x="179.9" y="672.8" class="st8" width="23.6" height="35.8"></rect>
	<rect id="Silver_1" x="179.9" y="714.4" class="st6" width="23.6" height="35.8"></rect>
	<rect id="Silver_6" x="293.1" y="861.2" class="st8" width="33.7" height="23.6"></rect>
	
		<rect id="Silver_5" x="571.8" y="827.5" transform="matrix(8.732433e-02 -0.9962 0.9962 8.732433e-02 -359.0382 1398.3207)" class="st6" width="23.6" height="135.2"></rect>
	
		<rect id="Super_Bronze" x="1161.4" y="190.7" transform="matrix(0.9957 -9.307784e-02 9.307784e-02 0.9957 -16.5103 110.2067)" class="st6" width="23.6" height="82.7"></rect>
	
		<rect id="Bronze_1" x="1125.2" y="217.4" transform="matrix(0.9961 -8.802983e-02 8.802983e-02 0.9961 -20.7048 101.1959)" class="st7" width="23.6" height="135.9"></rect>
	
		<rect id="Bronze_2" x="1116.1" y="153.5" transform="matrix(0.9953 -9.722439e-02 9.722439e-02 0.9953 -12.3426 110.5253)" class="st8" width="23.6" height="56.8"></rect>
	<path id="Silver_3" class="st6" d="M180.4,817.1c2.1,14.6,18,45.6,64.5,58.7c11.4,3.2,34.5,6.9,35.5,7l3.7-23.3   c-0.2,0-22.7-3.6-32.8-6.4c-35.8-10.1-46.5-32.2-47.4-39.1L180.4,817.1z"></path>
	<rect id="Red_Bull" x="179.9" y="775.8" class="st8" width="23.6" height="33.7"></rect>
	<rect id="Silver_4" x="134.2" y="761.6" class="st8" width="23.6" height="50.4"></rect>
	<rect id="Paddock_Club" x="263.6" y="366.7" class="st6" width="23.6" height="231.6"></rect>
	<g id="section-2192"><g id="section-2192"><rect id="Champions_Club" x="263.6" y="304.3" class="st6 section-2192 red-fill" width="23.6" height="59" data-toggle="svg-tooltip" data-placement="top" title="Champions Club" data-hover-color="#e10600" data-fill-color="" data-categories="[&quot;hospitality&quot;, &quot;amex&quot;, &quot;amc&quot;, &quot;champions club&quot;, &quot;f1e&quot;, &quot;rt-club&quot;, &quot;3-Days&quot;, &quot;vistajet&quot;, &quot;oracle&quot;]" style="fill: rgb(125, 125, 125);" stroke-width="0"></rect></g></g>
</g>
<g id="misc" class="st4">
	<line class="st9" x1="186" y1="110.6" x2="158.2" y2="110.6"></line>
	<line class="st9" x1="186" y1="222.8" x2="158.2" y2="222.8"></line>
	<line class="st9" x1="186" y1="377.8" x2="158.2" y2="377.8"></line>
	<line class="st9" x1="229.7" y1="856.4" x2="191.7" y2="947"></line>
	<line class="st9" x1="587.5" y1="897.2" x2="587.5" y2="976"></line>
	<line class="st9" x1="310" y1="877.5" x2="310" y2="968.6"></line>
	<polyline class="st9" points="119,526.8 135.4,526.8 183,559.9  "></polyline>
	<polyline class="st9" points="119,567 135.4,567 183,600.1  "></polyline>
	<polyline class="st9" points="119,606 135.4,606 183,639.1  "></polyline>
	<polyline class="st9" points="119,686 135.4,686 183,719.1  "></polyline>
	<polyline class="st9" points="119,644.5 135.4,644.5 183,677.5  "></polyline>
	<polyline class="st9" points="183,805.4 140.5,865.6 69.6,865.6  "></polyline>
	<line class="st9" x1="281.8" y1="335.9" x2="365.9" y2="263.6"></line>
	<line class="st9" x1="365.9" y1="263.6" x2="382.3" y2="263.6"></line>
</g>
<g id="gs_names" class="st4">
	<g class="st5">
		<path class="st6" d="M93.8,112.3v-2.5h4.1v7.3c-1.6,0.3-3.2,0.4-4.8,0.5c-1.7,0.2-3.4-0.4-4.5-1.8c-1-1.7-1.4-3.6-1.2-5.6    c-0.2-1.9,0.3-3.8,1.3-5.5c1.1-1.2,2.7-1.9,4.3-1.7c1.4,0,2.8,0.2,4.1,0.4l0.7,0.1v2.2c-1.4-0.2-2.7-0.3-4.1-0.3    c-0.8-0.1-1.5,0.1-2.2,0.4c-0.5,0.3-0.8,0.8-0.9,1.4c-0.3,1.1-0.4,2.3-0.3,3.4c-0.1,1.2,0.1,2.3,0.6,3.4c0.6,0.7,1.5,1.1,2.5,1    h1.7v-2.8L93.8,112.3L93.8,112.3z"></path>
		<path class="st6" d="M110.2,115.8c-1.1,1.3-2.8,1.9-4.5,1.7c-1.7,0.2-3.4-0.5-4.5-1.7c-1-1.6-1.5-3.5-1.3-5.5    c-0.1-1.9,0.3-3.8,1.3-5.5c1.1-1.3,2.8-2,4.5-1.8c1.7-0.2,3.4,0.5,4.5,1.8c1,1.7,1.4,3.6,1.3,5.5    C111.7,112.2,111.2,114.1,110.2,115.8z M103.4,114c0.5,0.8,1.4,1.2,2.3,1.1c0.9,0.1,1.8-0.3,2.3-1.1c0.5-1.1,0.7-2.4,0.6-3.6    c0.1-1.3-0.1-2.5-0.6-3.7c-0.9-1.3-2.7-1.5-3.9-0.6c-0.2,0.2-0.4,0.4-0.6,0.6c-0.5,1.2-0.7,2.4-0.6,3.7    C102.7,111.6,103,112.8,103.4,114z"></path>
		<path class="st6" d="M121.9,117.3h-8v-14h2.8v11.5h5.1L121.9,117.3z"></path>
		<path class="st6" d="M128.4,117.3h-4.7v-14h4.7c1,0,2,0.1,3,0.4c0.7,0.2,1.4,0.6,1.8,1.3c0.4,0.6,0.7,1.3,0.9,2.1    c0.2,1,0.3,2,0.2,3.1c0,1.1-0.1,2.1-0.2,3.2c-0.1,0.8-0.4,1.5-0.8,2.2c-0.4,0.7-1.1,1.2-1.8,1.4    C130.4,117.1,129.4,117.3,128.4,117.3z M131.4,111.7c0-0.4,0-1.1,0-1.8c0-0.6,0-1.3,0-1.9c-0.1-0.4-0.2-0.9-0.4-1.3    s-0.5-0.6-0.9-0.8c-0.5-0.2-1.1-0.2-1.6-0.2h-1.9v9.1h1.9c0.8,0.1,1.6-0.2,2.2-0.8C131.1,113.3,131.4,112.5,131.4,111.7    L131.4,111.7z"></path>
		<path class="st6" d="M146.4,117.3V115h-5.7v-2.2l3.4-9.2h3.1l-3.6,8.9h2.9v-3.8h2.8v3.8h1.3v2.5h-1.3v2.2L146.4,117.3z"></path>
	</g>
	<g class="st5">
		<path class="st6" d="M93.8,224.5V222h4.1v7.3c-1.6,0.3-3.2,0.4-4.8,0.5c-1.7,0.2-3.4-0.4-4.5-1.8c-1-1.7-1.4-3.6-1.2-5.6    c-0.2-1.9,0.3-3.8,1.3-5.5c1.1-1.2,2.7-1.9,4.3-1.7c1.4,0,2.8,0.2,4.1,0.4l0.7,0.1v2.2c-1.6-0.2-3-0.3-4.1-0.3    c-0.8-0.1-1.5,0.1-2.2,0.4c-0.5,0.3-0.8,0.8-0.9,1.4c-0.3,1.1-0.4,2.3-0.3,3.4c-0.1,1.2,0.1,2.3,0.6,3.4c0.4,0.7,1.2,1,2.5,1h1.7    v-2.7L93.8,224.5z"></path>
		<path class="st6" d="M110.2,228c-1.2,1.2-2.8,1.8-4.5,1.6c-1.7,0.2-3.4-0.5-4.5-1.7c-1-1.6-1.5-3.5-1.3-5.5    c-0.1-1.9,0.3-3.8,1.3-5.5c1.1-1.3,2.8-1.9,4.5-1.7c1.7-0.2,3.4,0.5,4.5,1.8c1,1.7,1.4,3.6,1.3,5.5    C111.7,224.5,111.2,226.4,110.2,228z M103.4,226.2c0.5,0.8,1.4,1.2,2.3,1.1c0.9,0.1,1.8-0.3,2.3-1.1c0.5-1.1,0.7-2.4,0.6-3.6    c0.1-1.3-0.1-2.5-0.6-3.7c-0.9-1.3-2.7-1.5-3.9-0.6c-0.2,0.2-0.4,0.4-0.6,0.6c-0.5,1.2-0.7,2.4-0.6,3.7    C102.7,223.8,103,225.1,103.4,226.2z"></path>
		<path class="st6" d="M121.9,229.5h-8v-14h2.8V227h5.1L121.9,229.5z"></path>
		<path class="st6" d="M128.4,229.5h-4.7v-14h4.7c1,0,2,0.1,3,0.4c0.7,0.2,1.4,0.6,1.8,1.3c0.4,0.6,0.7,1.3,0.9,2.1    c0.2,1,0.3,2,0.2,3.1c0,1.1-0.1,2.1-0.2,3.2c-0.1,0.8-0.4,1.5-0.8,2.2c-0.4,0.7-1.1,1.2-1.8,1.4    C130.4,229.4,129.4,229.5,128.4,229.5z M131.4,223.9c0-0.4,0-1.1,0-1.8c0-0.6,0-1.3,0-1.9c-0.1-0.4-0.2-0.9-0.4-1.3    c-0.2-0.4-0.5-0.6-0.9-0.8c-0.5-0.2-1.1-0.2-1.6-0.2h-1.9v9.1h1.9c0.8,0.1,1.6-0.2,2.2-0.8C131.1,225.6,131.4,224.8,131.4,223.9    L131.4,223.9z"></path>
		<path class="st6" d="M141.1,216.4c1.3-0.5,2.7-0.7,4.1-0.7c1.2-0.1,2.4,0.2,3.4,0.9c0.8,0.7,1.2,1.8,1.1,2.9c0,1.2-0.6,2.4-1.6,3    c0.5,0.3,1,0.7,1.4,1.1c0.3,0.6,0.5,1.2,0.4,1.8c0.1,1.2-0.3,2.4-1.1,3.3c-1,0.8-2.3,1.2-3.5,1.1c-1.3,0-2.5-0.2-3.8-0.5l-0.7-0.2    l0.1-2.2c1.3,0.2,2.6,0.4,3.9,0.4c1.4,0,2.1-0.6,2.1-1.8c0-0.5-0.2-0.9-0.5-1.2c-0.4-0.3-0.9-0.5-1.4-0.5h-2.6v-2.4h2.7    c0.5,0,0.9-0.2,1.2-0.6c0.3-0.3,0.5-0.8,0.5-1.3c0-1-0.7-1.5-2.1-1.5c-1,0-2,0.1-3,0.3h-0.5L141.1,216.4z"></path>
	</g>
	<g class="st5">
		<path class="st6" d="M98.3,362.1c-1.5,0-2.2,0.5-2.2,1.5c0,0.4,0.2,0.8,0.6,1c0.8,0.4,1.7,0.8,2.6,1c1.1,0.3,2,0.8,2.9,1.5    c0.6,0.7,0.9,1.6,0.8,2.6c0.1,1.3-0.4,2.5-1.3,3.3c-1,0.8-2.2,1.2-3.5,1.1c-1.3,0-2.6-0.2-3.9-0.5l-0.7-0.1l0.3-2.2    c1.4,0.2,2.7,0.3,4.1,0.4c1.5,0,2.2-0.6,2.2-1.8c0-0.4-0.2-0.8-0.5-1c-0.6-0.4-1.3-0.6-2.1-0.8c-1.2-0.3-2.4-0.8-3.4-1.6    c-0.7-0.7-1-1.6-1-2.6c-0.1-1.2,0.4-2.3,1.3-3.1c1-0.7,2.2-1.1,3.5-1c1.3,0,2.6,0.2,3.9,0.4l0.7,0.1l-0.2,2.2    C100.9,362.2,99.6,362.1,98.3,362.1z"></path>
		<path class="st6" d="M107.9,369.2c0,1.4,1.1,2.5,2.5,2.5s2.5-1.1,2.5-2.5v-9.3h2.8v9.3c0.1,1.4-0.4,2.8-1.3,3.8    c-2.4,1.6-5.6,1.6-8,0c-1-1-1.5-2.4-1.3-3.8v-9.3h2.8V369.2z"></path>
		<path class="st6" d="M123.8,369.8h-2.3v4.1h-2.8v-14h5.2c2.4-0.4,4.6,1.2,5,3.6c0.1,0.4,0.1,0.8,0,1.2c0.1,1.4-0.4,2.7-1.3,3.7    C126.5,369.4,125.1,369.9,123.8,369.8z M121.5,367.3h2.3c1.4,0,2.1-0.9,2.1-2.6c0.1-0.7-0.1-1.3-0.5-1.9c-0.4-0.4-1-0.6-1.6-0.6    h-2.2L121.5,367.3z"></path>
		<path class="st6" d="M130.8,373.9v-14h9.1v2.5h-6.2v3.3h5v2.4h-5.1v3.4h6.2v2.5L130.8,373.9L130.8,373.9z"></path>
		<path class="st6" d="M145,369.2v4.7h-2.8v-14h5.4c3.3,0,4.9,1.5,4.9,4.6c0.1,1.7-0.7,3.2-2.1,4.1l2.1,5.4h-3.2l-1.6-4.7L145,369.2    z M149.1,366.1c0.3-0.5,0.5-1,0.5-1.6s-0.1-1.2-0.5-1.6s-1-0.6-1.5-0.6H145v4.4h2.6C148.2,366.8,148.8,366.5,149.1,366.1    L149.1,366.1z"></path>
		<path class="st6" d="M111.9,390v-2.5h4.1v7.3c-1.6,0.3-3.2,0.4-4.8,0.5c-1.7,0.2-3.4-0.5-4.5-1.8c-1-1.7-1.4-3.6-1.2-5.6    c-0.2-1.9,0.3-3.8,1.3-5.5c1.1-1.2,2.7-1.9,4.3-1.7c1.4,0,2.8,0.2,4.1,0.4l0.7,0.1v2.2c-1.4-0.2-2.7-0.3-4.1-0.3    c-0.8-0.1-1.5,0.1-2.2,0.4c-0.5,0.3-0.8,0.8-0.9,1.4c-0.3,1.1-0.4,2.3-0.3,3.4c-0.1,1.2,0.1,2.3,0.6,3.4c0.6,0.7,1.5,1.1,2.5,1    h1.7V390H111.9z"></path>
		<path class="st6" d="M128.4,393.5c-1.1,1.3-2.8,1.9-4.5,1.8c-1.7,0.2-3.4-0.5-4.5-1.8c-1-1.6-1.5-3.5-1.3-5.4    c-0.1-1.9,0.3-3.9,1.3-5.5c1.1-1.3,2.8-2,4.5-1.8c1.7-0.2,3.4,0.5,4.5,1.8c1,1.7,1.4,3.6,1.3,5.5    C129.8,390,129.4,391.9,128.4,393.5z M121.6,391.7c0.5,0.8,1.4,1.2,2.3,1.1c0.9,0.1,1.8-0.3,2.3-1.1c0.5-1.1,0.7-2.4,0.6-3.6    c0.1-1.3-0.1-2.5-0.6-3.7c-0.9-1.3-2.7-1.5-3.9-0.6c-0.2,0.2-0.4,0.4-0.6,0.6c-0.5,1.2-0.7,2.4-0.6,3.7    C120.9,389.3,121.1,390.5,121.6,391.7L121.6,391.7z"></path>
		<path class="st6" d="M140.1,395h-8v-14h2.8v11.4h5.1L140.1,395L140.1,395z"></path>
		<path class="st6" d="M146.5,395h-4.7v-14h4.7c1,0,2,0.1,3,0.4c0.7,0.2,1.4,0.7,1.8,1.3c0.4,0.6,0.7,1.3,0.9,2.1    c0.2,1,0.3,2.1,0.2,3.1c0,1-0.1,2.1-0.2,3.1c-0.1,0.8-0.4,1.5-0.8,2.2c-0.4,0.7-1.1,1.2-1.8,1.4C148.6,394.9,147.6,395,146.5,395z     M149.5,389.4c0-0.5,0-1.1,0-1.8c0-0.6,0-1.2,0-1.9c0-0.4-0.2-0.9-0.4-1.3s-0.5-0.7-0.9-0.8c-0.5-0.2-1.1-0.2-1.6-0.2h-1.9v9.1    h1.9c0.8,0.1,1.6-0.2,2.2-0.8C149.2,391.1,149.5,390.3,149.5,389.4z"></path>
	</g>
	<g class="st5">
		<path class="st6" d="M52.6,527.3v-2.5h4.1v7.3c-1.6,0.3-3.2,0.4-4.8,0.5c-1.7,0.2-3.4-0.5-4.5-1.8c-1-1.7-1.4-3.6-1.2-5.6    c-0.2-1.9,0.3-3.8,1.3-5.5c1.1-1.2,2.7-1.9,4.3-1.7c1.4,0,2.8,0.2,4.1,0.4l0.7,0.1v2.2c-1.4-0.2-2.7-0.3-4.1-0.3    c-0.8-0.1-1.5,0.1-2.2,0.4c-0.5,0.3-0.8,0.8-0.9,1.4c-0.3,1.1-0.4,2.3-0.3,3.4c-0.1,1.2,0.1,2.3,0.6,3.4c0.6,0.7,1.5,1.1,2.5,1    h1.7v-2.7L52.6,527.3z"></path>
		<path class="st6" d="M69,530.8c-1.2,1.2-2.8,1.9-4.5,1.7c-1.7,0.2-3.4-0.5-4.5-1.8c-1-1.6-1.5-3.5-1.3-5.4    c-0.1-1.9,0.3-3.9,1.3-5.5c1.1-1.3,2.8-1.9,4.5-1.7c1.7-0.2,3.4,0.5,4.5,1.8c1,1.7,1.4,3.6,1.3,5.5C70.5,527.3,70,529.2,69,530.8z     M62.2,529c0.5,0.8,1.4,1.2,2.3,1.1c0.9,0.1,1.8-0.3,2.3-1.1c0.5-1.1,0.7-2.4,0.6-3.6c0.1-1.3-0.1-2.5-0.6-3.7    c-0.9-1.3-2.7-1.5-3.9-0.6c-0.2,0.2-0.4,0.4-0.6,0.6c-0.5,1.2-0.7,2.4-0.6,3.7C61.5,526.6,61.8,527.9,62.2,529z"></path>
		<path class="st6" d="M80.7,532.3h-8v-14h2.8v11.5h5.1L80.7,532.3z"></path>
		<path class="st6" d="M87.2,532.3h-4.7v-14h4.7c1,0,2,0.1,3,0.4c0.7,0.2,1.4,0.7,1.8,1.3s0.7,1.3,0.9,2.1c0.2,1,0.3,2.1,0.2,3.1    c0,1-0.1,2.1-0.2,3.1c-0.1,0.8-0.4,1.5-0.8,2.2s-1.1,1.2-1.8,1.4C89.2,532.2,88.2,532.4,87.2,532.3z M90.2,526.8    c0-0.5,0-1.1,0-1.8c0-0.6,0-1.2,0-1.9c0-0.4-0.2-0.9-0.4-1.3c-0.2-0.4-0.5-0.7-0.9-0.8c-0.5-0.2-1.1-0.2-1.6-0.2h-1.9v9.1h1.9    c0.8,0.1,1.6-0.2,2.2-0.8C89.9,528.4,90.2,527.6,90.2,526.8L90.2,526.8z"></path>
		<path class="st6" d="M107.2,518.7v13.6h-2.8V522l-2.9,1.9l-1.3-2.1l4.5-3L107.2,518.7z"></path>
	</g>
	<g class="st5">
		<path class="st6" d="M52.6,566.3v-2.5h4.1v7.3c-1.6,0.3-3.2,0.4-4.8,0.5c-1.7,0.2-3.4-0.4-4.5-1.8c-1-1.7-1.4-3.6-1.2-5.6    c-0.2-1.9,0.3-3.8,1.3-5.5c1.1-1.2,2.7-1.9,4.3-1.7c1.4,0,2.8,0.2,4.1,0.4l0.7,0.1v2.2c-1.6-0.2-3-0.3-4.1-0.3    c-0.8-0.1-1.5,0.1-2.2,0.4c-0.5,0.3-0.8,0.8-0.9,1.4c-0.3,1.1-0.4,2.3-0.3,3.4c-0.1,1.2,0.1,2.3,0.6,3.4c0.4,0.7,1.2,1,2.5,1h1.7    v-2.8L52.6,566.3L52.6,566.3z"></path>
		<path class="st6" d="M69,569.8c-1.1,1.3-2.8,2-4.5,1.8c-1.7,0.2-3.4-0.5-4.5-1.7c-1-1.6-1.5-3.5-1.3-5.5c-0.1-1.9,0.3-3.8,1.3-5.5    c1.1-1.3,2.8-2,4.5-1.8c1.7-0.2,3.4,0.5,4.5,1.8c1,1.7,1.4,3.6,1.3,5.5C70.5,566.3,70,568.2,69,569.8z M62.2,568    c0.5,0.8,1.4,1.2,2.3,1.1c0.9,0.1,1.8-0.3,2.3-1.1c0.5-1.1,0.7-2.4,0.6-3.6c0.1-1.3-0.1-2.5-0.6-3.7c-0.9-1.3-2.7-1.5-3.9-0.6    c-0.2,0.2-0.4,0.4-0.6,0.6c-0.5,1.2-0.7,2.4-0.6,3.7C61.5,565.6,61.8,566.9,62.2,568z"></path>
		<path class="st6" d="M80.7,571.3h-8v-14.1h2.8v11.5h5.1L80.7,571.3z"></path>
		<path class="st6" d="M87.2,571.3h-4.7v-14.1h4.7c1,0,2,0.1,3,0.4c0.7,0.2,1.4,0.7,1.8,1.3s0.7,1.3,0.9,2.1c0.2,1,0.3,2,0.2,3.1    c0,1.1-0.1,2.1-0.2,3.2c-0.1,0.8-0.4,1.5-0.8,2.2s-1.1,1.2-1.8,1.4C89.2,571.1,88.2,571.3,87.2,571.3z M90.2,565.7    c0-0.4,0-1,0-1.8c0-0.6,0-1.3,0-1.9c-0.1-0.4-0.2-0.9-0.4-1.3c-0.2-0.4-0.5-0.6-0.9-0.8c-0.5-0.2-1.1-0.2-1.6-0.2h-1.9v9.1h1.9    c0.8,0.1,1.6-0.2,2.2-0.8C89.9,567.4,90.2,566.6,90.2,565.7L90.2,565.7z"></path>
		<path class="st6" d="M108.8,571.3H100v-2.4l2.9-2.9c0.7-0.8,1.4-1.6,2.1-2.4c0.4-0.5,0.6-1.1,0.6-1.8c0.1-0.5-0.1-1-0.5-1.4    c-0.4-0.3-0.9-0.4-1.4-0.4c-1,0-2,0.1-3,0.2h-0.5l-0.1-2.2c1.3-0.4,2.7-0.6,4.1-0.6c2.9,0,4.3,1.3,4.3,3.9c0,0.9-0.2,1.8-0.7,2.6    c-0.7,1-1.5,1.9-2.4,2.7l-2.4,2.1h5.6L108.8,571.3z"></path>
	</g>
	<g class="st5">
		<path class="st6" d="M37.7,598.5c-1.5,0-2.2,0.5-2.2,1.5c0,0.4,0.2,0.8,0.6,1c0.8,0.4,1.7,0.8,2.6,1c1.1,0.3,2,0.8,2.9,1.5    c0.6,0.7,0.9,1.6,0.8,2.6c0.1,1.3-0.4,2.5-1.3,3.3c-1,0.8-2.2,1.2-3.5,1.1c-1.3,0-2.6-0.2-3.9-0.5l-0.7-0.1l0.3-2.2    c1.4,0.2,2.7,0.3,4.1,0.4c1.5,0,2.2-0.6,2.2-1.8c0-0.4-0.2-0.8-0.5-1c-0.6-0.4-1.3-0.6-2.1-0.8c-1.2-0.3-2.4-0.8-3.4-1.6    c-0.7-0.7-1-1.6-1-2.6c-0.1-1.2,0.4-2.3,1.3-3.1c1-0.7,2.3-1.1,3.5-1c1.3,0,2.6,0.2,3.9,0.4l0.7,0.1l-0.2,2.2    C39.8,598.6,38.4,598.5,37.7,598.5z"></path>
		<path class="st6" d="M44.5,610.3v-13.9h2.8v14L44.5,610.3z"></path>
		<path class="st6" d="M58.3,610.3h-7.9v-13.9h2.8v11.5h5.1C58.3,607.9,58.3,610.3,58.3,610.3z"></path>
		<path class="st6" d="M66.6,596.4h3l-3.3,14h-5.2l-3.3-14h3l2.4,11.5h0.9L66.6,596.4z"></path>
		<path class="st6" d="M71.4,610.3v-13.9h9.1v2.5h-6.2v3.3h5v2.4h-5v3.4h6.2v2.5L71.4,610.3z"></path>
		<path class="st6" d="M85.7,605.6v4.7h-2.8v-13.9h5.4c3.3,0,4.9,1.5,4.9,4.6c0.1,1.7-0.7,3.2-2.1,4.1l2.1,5.4H90l-1.6-4.7    L85.7,605.6z M89.8,602.6c0.3-0.5,0.5-1,0.5-1.6s-0.2-1.2-0.5-1.6c-0.4-0.4-1-0.6-1.5-0.6h-2.6v4.4h2.6    C88.9,603.2,89.5,603,89.8,602.6L89.8,602.6z"></path>
		<path class="st6" d="M108.8,610.3H100v-2.4l2.9-2.9c0.7-0.8,1.4-1.6,2.1-2.4c0.4-0.5,0.6-1.1,0.6-1.8c0.1-0.5-0.1-1-0.5-1.4    c-0.4-0.3-0.9-0.4-1.4-0.4c-1,0-2,0.1-3,0.2h-0.5l-0.1-2.2c1.3-0.4,2.7-0.6,4.1-0.6c2.9,0,4.3,1.3,4.3,3.9c0,0.9-0.2,1.8-0.7,2.6    c-0.7,1-1.5,1.9-2.4,2.7l-2.4,2.1h5.6L108.8,610.3z"></path>
	</g>
	<g class="st5">
		<path class="st6" d="M37.7,682.1c-1.5,0-2.2,0.5-2.2,1.5c0,0.4,0.2,0.8,0.6,1c0.8,0.4,1.7,0.8,2.6,1c1.1,0.3,2,0.8,2.9,1.5    c0.6,0.7,0.9,1.6,0.8,2.6c0.1,1.3-0.4,2.5-1.3,3.3c-1,0.8-2.2,1.2-3.5,1.1c-1.3,0-2.6-0.2-3.9-0.5l-0.7-0.1l0.3-2.2    c1.4,0.2,2.7,0.3,4.1,0.4c1.5,0,2.2-0.6,2.2-1.8c0-0.4-0.2-0.8-0.5-1c-0.6-0.4-1.3-0.6-2.1-0.8c-1.2-0.3-2.3-0.8-3.3-1.6    c-0.7-0.7-1-1.6-1-2.6c-0.1-1.2,0.4-2.3,1.3-3.1c1-0.7,2.2-1.1,3.5-1c1.3,0,2.6,0.2,3.9,0.4l0.7,0.1l-0.2,2.2    C40.4,682.3,39.1,682.1,37.7,682.1z"></path>
		<path class="st6" d="M44.5,693.9v-14h2.8v14H44.5z"></path>
		<path class="st6" d="M58.3,693.9h-7.9v-14h2.8v11.5h5.1C58.3,691.4,58.3,693.9,58.3,693.9z"></path>
		<path class="st6" d="M66.6,679.9h3l-3.3,14h-5.2l-3.3-14h3l2.4,11.5h0.9L66.6,679.9z"></path>
		<path class="st6" d="M71.4,693.9v-14h9.1v2.5h-6.2v3.3h5v2.4h-5v3.4h6.2v2.5L71.4,693.9z"></path>
		<path class="st6" d="M85.7,689.2v4.7h-2.8v-14h5.4c3.3,0,4.9,1.5,4.9,4.6c0.1,1.7-0.7,3.2-2.1,4.1l2.1,5.4H90l-1.6-4.7L85.7,689.2    z M89.8,686.1c0.3-0.5,0.5-1,0.5-1.6s-0.1-1.2-0.5-1.6c-0.4-0.4-1-0.6-1.5-0.6h-2.6v4.4h2.6C88.9,686.8,89.5,686.6,89.8,686.1    L89.8,686.1z"></path>
		<path class="st6" d="M107.2,680.3v13.6h-2.8v-10.3l-2.9,1.9l-1.3-2.1l4.5-3L107.2,680.3z"></path>
	</g>
	<g class="st5">
		<path class="st6" d="M73.1,647.3v-2.5h4.1v7.3c-1.6,0.3-3.2,0.4-4.8,0.5c-1.7,0.2-3.4-0.5-4.5-1.8c-1-1.7-1.4-3.6-1.2-5.6    c-0.2-1.9,0.3-3.8,1.3-5.5c1.1-1.2,2.7-1.9,4.3-1.7c1.4,0,2.8,0.2,4.1,0.4l0.7,0.1v2.2c-1.4-0.2-2.7-0.3-4.1-0.3    c-0.8-0.1-1.5,0.1-2.2,0.4c-0.5,0.3-0.8,0.8-0.9,1.4c-0.3,1.1-0.4,2.3-0.3,3.4c-0.1,1.2,0.1,2.3,0.6,3.4c0.6,0.7,1.5,1.1,2.5,1    h1.7v-2.7L73.1,647.3z"></path>
		<path class="st6" d="M82.7,647.6v4.7h-2.8v-14h5.4c3.3,0,4.9,1.5,4.9,4.6c0.1,1.7-0.7,3.2-2.1,4.1l2.1,5.4h-3.1l-1.6-4.7    L82.7,647.6z M86.8,644.6c0.3-0.5,0.5-1,0.5-1.6s-0.1-1.2-0.5-1.6c-0.4-0.4-1-0.6-1.5-0.6h-2.6v4.4h2.6    C85.9,645.3,86.5,645,86.8,644.6L86.8,644.6z"></path>
		<path class="st6" d="M92.7,652.3v-14h2.8v14H92.7z"></path>
		<path class="st6" d="M103.3,652.3h-4.7v-14h4.7c1,0,2,0.1,3,0.4c0.7,0.2,1.4,0.7,1.8,1.3s0.7,1.3,0.9,2.1c0.2,1,0.3,2.1,0.2,3.1    c0,1-0.1,2.1-0.2,3.1c-0.1,0.8-0.4,1.5-0.8,2.2s-1.1,1.2-1.8,1.4C105.3,652.2,104.3,652.4,103.3,652.3z M106.2,646.8    c0-0.5,0-1.1,0-1.8c0-0.6,0-1.2,0-1.9c0-0.4-0.2-0.9-0.4-1.3c-0.2-0.4-0.5-0.7-0.9-0.8c-0.5-0.2-1.1-0.2-1.6-0.2h-1.9v9.1h1.9    c0.8,0.1,1.6-0.2,2.2-0.8C106,648.4,106.3,647.6,106.2,646.8z"></path>
	</g>
	<g class="st5">
		<path class="st6" d="M22.2,855.8v4.7h-2.8v-14h5.4c3.3,0,4.9,1.5,4.9,4.6c0.1,1.7-0.7,3.2-2.1,4.1l2.1,5.4h-3.2l-1.6-4.7    L22.2,855.8z M26.3,852.7c0.3-0.5,0.5-1,0.5-1.6s-0.1-1.2-0.5-1.6c-0.4-0.4-1-0.6-1.5-0.6h-2.6v4.4h2.6    C25.4,853.4,25.9,853.2,26.3,852.7L26.3,852.7z"></path>
		<path class="st6" d="M32.1,860.5v-14h9.1v2.5H35v3.3h5v2.4h-5v3.3h6.2v2.5H32.1z"></path>
		<path class="st6" d="M48.2,860.5h-4.7v-14h4.7c1,0,2,0.1,3,0.4c0.7,0.2,1.4,0.7,1.8,1.3c0.4,0.6,0.7,1.3,0.9,2.1    c0.2,1,0.3,2,0.3,3.1s-0.1,2.1-0.2,3.2c-0.1,0.8-0.4,1.5-0.8,2.2c-0.4,0.7-1.1,1.2-1.8,1.4C50.3,860.4,49.3,860.5,48.2,860.5z     M51.2,854.9c0-0.4,0-1.1,0-1.8c0-0.6,0-1.3,0-1.9c-0.1-0.4-0.2-0.9-0.4-1.3c-0.2-0.4-0.5-0.6-0.9-0.8c-0.5-0.2-1.1-0.2-1.6-0.2    h-1.9v9h1.9c0.8,0.1,1.6-0.2,2.2-0.8C51,856.5,51.2,855.7,51.2,854.9z"></path>
		<path class="st6" d="M11.2,867.6h5.5c1.2-0.1,2.3,0.2,3.3,0.9c0.8,0.7,1.2,1.8,1.1,2.8c0,0.6-0.1,1.3-0.4,1.9    c-0.3,0.5-0.7,0.9-1.2,1.2c0.6,0.2,1,0.6,1.4,1.1c0.3,0.6,0.5,1.3,0.4,2.1c0.1,1.1-0.3,2.3-1.2,3c-1,0.7-2.2,1.1-3.4,1h-5.6v-14    H11.2z M16.5,870H14v3.3h2.5c1.1,0,1.6-0.6,1.6-1.7c0.1-0.8-0.4-1.5-1.2-1.7C16.8,870,16.7,870,16.5,870z M16.5,875.8H14v3.4h2.6    c0.5,0,1-0.1,1.4-0.4c0.3-0.4,0.5-0.9,0.4-1.4C18.4,876.3,17.8,875.8,16.5,875.8L16.5,875.8z"></path>
		<path class="st6" d="M26.4,876.9c-0.2,1.2,0.7,2.3,1.9,2.5c0.2,0,0.4,0,0.6,0c1.2,0.2,2.3-0.6,2.5-1.8c0-0.2,0-0.4,0-0.6v-9.3h2.8    v9.3c0.1,1.4-0.4,2.8-1.3,3.8c-1.1,0.9-2.6,1.3-4,1.2c-1.4,0.1-2.9-0.3-4-1.2c-1-1-1.5-2.4-1.3-3.8v-9.3h2.8L26.4,876.9z"></path>
		<path class="st6" d="M45.2,881.6h-8v-14H40v11.5h5.1L45.2,881.6z"></path>
		<path class="st6" d="M54.9,881.6h-8v-14h2.8v11.5h5.1v2.5H54.9z"></path>
	</g>
	<g class="st5">
		<path class="st6" d="M155.2,953.8c-1.5,0-2.2,0.5-2.2,1.5c0,0.4,0.2,0.8,0.6,1c0.8,0.4,1.7,0.8,2.6,1c1.1,0.3,2,0.8,2.9,1.5    c0.6,0.7,0.9,1.6,0.8,2.6c0.1,1.3-0.4,2.5-1.3,3.3c-1,0.8-2.2,1.2-3.5,1.1c-1.3,0-2.6-0.2-3.9-0.5l-0.7-0.1l0.3-2.2    c1.4,0.2,2.7,0.3,4.1,0.4c1.5,0,2.2-0.6,2.2-1.8c0-0.4-0.2-0.8-0.5-1c-0.6-0.4-1.3-0.6-2.1-0.8c-1.2-0.3-2.4-0.8-3.4-1.6    c-0.7-0.7-1-1.6-1-2.6c-0.1-1.2,0.4-2.3,1.3-3.1c1-0.7,2.3-1.1,3.5-1c1.3,0,2.6,0.2,3.9,0.4l0.7,0.1l-0.1,2.2    C157.2,953.9,155.9,953.8,155.2,953.8z"></path>
		<path class="st6" d="M162,965.5v-14h2.8v14H162z"></path>
		<path class="st6" d="M175.9,965.5h-8v-14h2.8V963h5.1L175.9,965.5z"></path>
		<path class="st6" d="M184.1,951.5h3l-3.3,14h-5.3l-3.3-14h3l2.4,11.5h0.9L184.1,951.5z"></path>
		<path class="st6" d="M188.9,965.5v-14h9.1v2.5h-6.2v3.3h5v2.4h-5v3.3h6.2v2.5H188.9z"></path>
		<path class="st6" d="M203.2,960.8v4.7h-2.8v-14h5.4c3.3,0,4.9,1.5,4.9,4.6c0.1,1.7-0.7,3.2-2.1,4.1l2.1,5.4h-3.1l-1.6-4.7    L203.2,960.8z M207.3,957.8c0.3-0.5,0.5-1,0.5-1.6s-0.2-1.2-0.5-1.6c-0.4-0.4-1-0.6-1.5-0.6h-2.6v4.4h2.6    C206.4,958.5,207,958.2,207.3,957.8L207.3,957.8z"></path>
		<path class="st6" d="M217.4,952.4c1.4-0.5,2.8-0.8,4.2-0.7c1.2-0.1,2.4,0.2,3.4,0.9c0.8,0.7,1.2,1.8,1.1,2.9    c0.1,1.2-0.5,2.4-1.6,3c0.5,0.3,1,0.7,1.4,1.1c0.3,0.6,0.5,1.2,0.4,1.8c0.1,1.2-0.3,2.4-1.1,3.3c-1,0.8-2.3,1.2-3.5,1.1    c-1.3,0-2.5-0.2-3.8-0.5l-0.7-0.2l0.1-2.1c1.3,0.2,2.6,0.4,3.9,0.4c1.4,0,2.1-0.6,2.1-1.8c0-0.5-0.2-0.9-0.5-1.2    c-0.4-0.3-0.9-0.5-1.4-0.5h-2.7v-2.5h2.7c0.5,0,0.9-0.2,1.2-0.6c0.3-0.3,0.5-0.8,0.5-1.3c0-1-0.7-1.5-2.1-1.5c-1,0-2,0.1-3,0.3    h-0.5L217.4,952.4z"></path>
	</g>
	<g class="st5">
		<path class="st6" d="M274.6,977.9c-1.5,0-2.2,0.5-2.2,1.5c0,0.4,0.2,0.8,0.6,1c0.8,0.4,1.7,0.8,2.6,1c1.1,0.3,2,0.8,2.9,1.5    c0.6,0.7,0.9,1.6,0.8,2.6c0.1,1.3-0.4,2.5-1.3,3.3c-1,0.8-2.2,1.2-3.5,1.1c-1.3,0-2.6-0.2-3.9-0.5l-0.7-0.1l0.3-2.2    c1.4,0.2,2.7,0.3,4.1,0.4c1.5,0,2.2-0.6,2.2-1.8c0-0.4-0.2-0.8-0.5-1c-0.6-0.4-1.3-0.6-2.1-0.8c-1.2-0.3-2.4-0.8-3.4-1.6    c-0.7-0.7-1-1.6-1-2.6c-0.1-1.2,0.4-2.3,1.3-3.1c1-0.7,2.2-1.1,3.5-1c1.3,0,2.6,0.2,3.9,0.4l0.7,0.1l-0.2,2.2    C277.3,978.1,276,978,274.6,977.9z"></path>
		<path class="st6" d="M281.4,989.7v-14h2.8v14H281.4z"></path>
		<path class="st6" d="M295.2,989.7h-8v-14h2.8v11.5h5.1v2.5H295.2z"></path>
		<path class="st6" d="M303.5,975.7h3l-3.3,14H298l-3.3-14h3l2.4,11.5h0.9L303.5,975.7z"></path>
		<path class="st6" d="M308.3,989.7v-14h9.1v2.5h-6.2v3.3h5v2.4h-5v3.4h6.2v2.5L308.3,989.7z"></path>
		<path class="st6" d="M322.6,985v4.7h-2.8v-14h5.4c3.3,0,4.9,1.5,4.9,4.6c0.1,1.7-0.7,3.2-2.1,4.1l2.1,5.4H327l-1.6-4.7L322.6,985z     M326.7,982c0.3-0.5,0.5-1,0.5-1.6s-0.2-1.2-0.5-1.6c-0.4-0.4-0.9-0.6-1.5-0.6h-2.6v4.4h2.6C325.8,982.6,326.4,982.4,326.7,982    L326.7,982z"></path>
		<path class="st6" d="M345.7,978.6c-1.2-0.2-2.4-0.3-3.6-0.3c-2,0-2.9,1.1-2.9,3.2l0.4-0.1c0.7-0.2,1.4-0.4,2.2-0.4    c1.3-0.1,2.5,0.3,3.5,1.1c0.9,0.9,1.3,2.1,1.2,3.3c0.1,1.3-0.4,2.5-1.3,3.4c-1.1,0.8-2.5,1.2-3.8,1.2c-1.5,0.1-2.9-0.6-3.8-1.8    c-1-1.6-1.4-3.5-1.3-5.4c-0.1-1.9,0.4-3.7,1.5-5.2c1.1-1.1,2.6-1.7,4.1-1.7c1.2,0,2.3,0.2,3.4,0.5l0.6,0.1L345.7,978.6z     M341.5,983.5c-0.7,0-1.4,0.1-2.1,0.4H339c0,2.4,0.8,3.6,2.3,3.6c0.6,0,1.1-0.2,1.5-0.6c0.4-0.4,0.6-1,0.5-1.5    C343.5,984.1,342.9,983.5,341.5,983.5L341.5,983.5z"></path>
	</g>
	<g class="st5">
		<path class="st6" d="M555.2,985.9c-1.5,0-2.2,0.5-2.2,1.5c0,0.4,0.2,0.8,0.6,1c0.8,0.4,1.7,0.7,2.6,1c1.1,0.3,2,0.8,2.9,1.5    c0.6,0.7,0.9,1.6,0.8,2.6c0.1,1.3-0.4,2.5-1.3,3.3c-1,0.8-2.2,1.2-3.5,1.1c-1.3,0-2.6-0.2-3.9-0.5l-0.7-0.1l0.3-2.2    c1.4,0.2,2.8,0.3,4.2,0.4c1.4,0,2.2-0.6,2.2-1.8c0-0.4-0.2-0.8-0.5-1c-0.6-0.4-1.3-0.6-2.1-0.8c-1.2-0.3-2.4-0.8-3.4-1.6    c-0.7-0.7-1-1.6-1-2.6c-0.1-1.2,0.4-2.4,1.3-3.1c1-0.7,2.2-1.1,3.5-1c1.3,0,2.6,0.2,3.9,0.4l0.7,0.1l-0.2,2.2    C557.8,986,556.5,985.9,555.2,985.9z"></path>
		<path class="st6" d="M562.1,997.7v-14h2.8v14H562.1z"></path>
		<path class="st6" d="M575.9,997.7h-8v-14h2.8v11.5h5.1v2.5H575.9z"></path>
		<path class="st6" d="M584.1,983.6h3l-3.3,14h-5.3l-3.2-14h3l2.4,11.5h0.9L584.1,983.6z"></path>
		<path class="st6" d="M589,997.7v-14h9.1v2.5h-6.2v3.3h5v2.5h-5v3.4h6.2v2.5L589,997.7z"></path>
		<path class="st6" d="M603.2,993v4.7h-2.8v-14h5.4c3.3,0,4.9,1.5,4.9,4.6c0.1,1.6-0.7,3.2-2.1,4.1l2.1,5.4h-3.1L606,993H603.2z     M607.3,989.9c0.3-0.5,0.5-1,0.5-1.6s-0.2-1.2-0.5-1.6c-0.4-0.4-0.9-0.6-1.5-0.6h-2.6v4.4h2.6C606.4,990.5,607,990.3,607.3,989.9    L607.3,989.9z"></path>
		<path class="st6" d="M626.2,984.1v2.5h-6.1l-0.4,2.9c0.8-0.3,1.6-0.5,2.4-0.5c2.9,0,4.4,1.4,4.4,4.1c0.1,1.3-0.4,2.6-1.2,3.6    c-0.9,0.9-2.2,1.3-3.4,1.3c-0.7,0-1.4-0.1-2.2-0.2c-0.6-0.1-1.3-0.2-1.9-0.4l-0.7-0.2l0.3-2.1c1.4,0.2,2.7,0.4,4.1,0.4    c1,0.1,2-0.6,2.1-1.7c0-0.1,0-0.3,0-0.4c0-0.5-0.1-1-0.5-1.4c-0.3-0.3-0.8-0.5-1.3-0.5c-0.8,0-1.6,0.1-2.4,0.3h-0.3l-1.7-0.4    l0.4-7.4L626.2,984.1z"></path>
	</g>
	<g class="st5">
		<path class="st6" d="M1160.9,279.3h5.5c1.2-0.1,2.3,0.2,3.3,0.9c0.8,0.7,1.2,1.8,1.1,2.8c0,0.6-0.1,1.3-0.4,1.9    c-0.3,0.5-0.7,0.9-1.2,1.2c0.6,0.2,1,0.6,1.4,1.1c0.3,0.6,0.5,1.3,0.5,2.1c0.1,1.1-0.3,2.3-1.2,3c-1,0.7-2.2,1.1-3.4,1h-5.6    L1160.9,279.3z M1166.3,281.7h-2.5v3.4h2.5c1.1,0,1.6-0.6,1.6-1.7c0.1-0.8-0.4-1.5-1.2-1.7    C1166.6,281.7,1166.4,281.7,1166.3,281.7L1166.3,281.7z M1166.3,287.5h-2.6v3.4h2.6c0.5,0,1-0.1,1.4-0.4c0.3-0.4,0.5-0.8,0.5-1.3    C1168.2,288,1167.6,287.5,1166.3,287.5L1166.3,287.5z"></path>
		<path class="st6" d="M1176.3,288.6v4.7h-2.8v-14h5.5c3.3,0,4.9,1.5,4.9,4.6c0.1,1.7-0.7,3.2-2.1,4.1l2.1,5.4h-3.1l-1.6-4.7    L1176.3,288.6z M1180.5,285.6c0.3-0.5,0.5-1,0.5-1.6s-0.2-1.2-0.5-1.6c-0.4-0.4-0.9-0.6-1.5-0.6h-2.6v4.5h2.7    C1179.6,286.2,1180.1,286,1180.5,285.6L1180.5,285.6z"></path>
		<path class="st6" d="M1195.9,291.8c-1.1,1.3-2.8,1.9-4.5,1.8c-1.7,0.2-3.4-0.5-4.5-1.8c-1-1.6-1.4-3.5-1.3-5.5    c-0.1-1.9,0.3-3.8,1.3-5.5c1.1-1.3,2.8-2,4.5-1.8c1.7-0.2,3.4,0.5,4.5,1.8c1,1.7,1.5,3.6,1.3,5.5    C1197.4,288.3,1197,290.2,1195.9,291.8z M1189.2,290c0.5,0.8,1.4,1.2,2.3,1.1c0.9,0.1,1.8-0.3,2.3-1.1c0.5-1.1,0.7-2.4,0.6-3.6    c0.1-1.3-0.1-2.5-0.6-3.7c-0.9-1.3-2.7-1.5-3.9-0.6c-0.2,0.2-0.4,0.4-0.6,0.6c-0.5,1.2-0.7,2.4-0.6,3.7    C1188.5,287.6,1188.7,288.9,1189.2,290z"></path>
		<path class="st6" d="M1199.7,293.3v-14h4.8l3.4,11.5h0.2v-11.5h2.8v14h-4.7l-3.5-11.5h-0.2v11.5H1199.7z"></path>
		<path class="st6" d="M1213.3,281.8v-2.5h9.3v2.5l-5.9,8.7v0.4h5.9v2.5h-9.3v-2.5l5.9-8.7v-0.4H1213.3z"></path>
		<path class="st6" d="M1224.9,293.3v-14h9.1v2.5h-6.2v3.3h5v2.4h-5v3.4h6.2v2.5L1224.9,293.3z"></path>
		<path class="st6" d="M1248,279.7v13.6h-2.8V283l-2.9,1.9l-1.3-2.1l4.5-3L1248,279.7z"></path>
	</g>
	<g class="st5">
		<path class="st6" d="M1149.1,178.9h5.5c1.2-0.1,2.3,0.2,3.3,0.9c0.8,0.7,1.2,1.8,1.1,2.8c0,0.6-0.1,1.3-0.4,1.9    c-0.3,0.5-0.7,0.9-1.2,1.2c0.6,0.2,1.1,0.6,1.4,1.1c0.3,0.6,0.5,1.3,0.4,2.1c0.1,1.1-0.3,2.3-1.2,3c-1,0.7-2.2,1.1-3.4,1h-5.6    L1149.1,178.9L1149.1,178.9z M1154.5,181.3h-2.5v3.3h2.5c1.1,0,1.6-0.6,1.6-1.7c0.1-0.8-0.4-1.5-1.2-1.7    C1154.7,181.3,1154.6,181.3,1154.5,181.3L1154.5,181.3z M1154.5,187h-2.6v3.5h2.6c0.5,0,1-0.1,1.4-0.4c0.3-0.4,0.5-0.9,0.4-1.4    C1156.3,187.6,1155.8,187,1154.5,187L1154.5,187z"></path>
		<path class="st6" d="M1164.6,188.2v4.7h-2.8v-14h5.4c3.3,0,4.9,1.5,4.9,4.6c0.1,1.7-0.7,3.2-2.1,4.1l2.1,5.4h-3.1l-1.6-4.7    L1164.6,188.2z M1168.7,185.1c0.3-0.5,0.5-1,0.5-1.6s-0.1-1.2-0.5-1.6c-0.4-0.4-1-0.6-1.5-0.6h-2.6v4.4h2.6    C1167.8,185.8,1168.3,185.6,1168.7,185.1z"></path>
		<path class="st6" d="M1184.1,191.4c-2.6,2.3-6.4,2.3-9,0c-1-1.6-1.5-3.5-1.3-5.5c-0.1-1.9,0.3-3.8,1.3-5.5c2.5-2.4,6.5-2.4,9,0    c1,1.7,1.4,3.6,1.3,5.5C1185.6,187.9,1185.1,189.8,1184.1,191.4z M1177.4,189.6c0.5,0.8,1.4,1.2,2.3,1.1c0.9,0.1,1.8-0.3,2.3-1.1    c0.5-1.1,0.7-2.4,0.6-3.6c0.1-1.3-0.1-2.5-0.6-3.7c-0.9-1.3-2.7-1.5-3.9-0.6c-0.2,0.2-0.4,0.4-0.6,0.6c-0.5,1.2-0.7,2.4-0.6,3.7    C1176.7,187.2,1176.9,188.4,1177.4,189.6z"></path>
		<path class="st6" d="M1187.9,192.9v-14h4.8l3.4,11.5h0.2v-11.5h2.8v14h-4.7l-3.5-11.5h-0.2v11.5H1187.9z"></path>
		<path class="st6" d="M1201.5,181.3v-2.5h9.3v2.5l-5.9,8.7v0.4h5.9v2.5h-9.3v-2.3l5.9-8.7v-0.4L1201.5,181.3z"></path>
		<path class="st6" d="M1213.1,192.9v-14h9.1v2.5h-6.2v3.3h5v2.4h-5v3.4h6.2v2.5L1213.1,192.9z"></path>
		<path class="st6" d="M1237.7,192.9h-8.8v-2.3l2.9-2.9c0.7-0.8,1.4-1.6,2.1-2.4c0.4-0.5,0.6-1.2,0.6-1.8c0-0.5-0.1-1-0.5-1.3    s-0.9-0.4-1.4-0.4c-1,0-2,0.1-3,0.2h-0.5l-0.1-2.2c1.3-0.4,2.7-0.6,4.1-0.6c2.9,0,4.3,1.3,4.3,3.9c0,0.9-0.2,1.8-0.7,2.6    c-0.7,1-1.5,1.9-2.4,2.7l-2.4,2.1h5.6L1237.7,192.9z"></path>
	</g>
	<g class="st5">
		<path class="st6" d="M53.2,780.9c-1.5,0-2.2,0.5-2.2,1.5c0,0.4,0.2,0.8,0.6,1c0.8,0.4,1.7,0.8,2.6,1c1.1,0.3,2.1,0.8,2.9,1.5    c0.6,0.7,0.9,1.6,0.8,2.6c0.1,1.3-0.4,2.5-1.3,3.3c-1,0.8-2.2,1.2-3.5,1.1c-1.3,0-2.6-0.2-3.9-0.5l-0.7-0.1l0.3-2.2    c1.4,0.2,2.7,0.3,4.1,0.4c1.4,0,2.2-0.6,2.2-1.8c0-0.4-0.2-0.8-0.5-1c-0.6-0.4-1.3-0.6-2.1-0.8c-1.2-0.3-2.4-0.8-3.4-1.6    c-0.7-0.7-1-1.6-1-2.6c-0.1-1.2,0.4-2.4,1.3-3.1c1-0.7,2.3-1.1,3.5-1c1.3,0,2.6,0.2,3.9,0.4l0.7,0.1l-0.2,2.2    C55.8,781,54.5,780.9,53.2,780.9z"></path>
		<path class="st6" d="M60.1,792.6v-14h2.8v14H60.1z"></path>
		<path class="st6" d="M74,792.6h-8v-14h2.8v11.5H74V792.6z"></path>
		<path class="st6" d="M82.2,778.6h2.9l-3.3,14h-5.2l-3.3-14h3l2.4,11.5h0.9L82.2,778.6z"></path>
		<path class="st6" d="M87,792.6v-14h9.1v2.5h-6.2v3.3h5v2.4h-5v3.4H96v2.5L87,792.6z"></path>
		<path class="st6" d="M101.3,787.9v4.7h-2.8v-14h5.4c3.3,0,4.9,1.5,4.9,4.6c0.1,1.6-0.7,3.2-2.1,4.1l2.1,5.4h-3.1l-1.7-4.8H101.3z     M105.4,784.9c0.3-0.5,0.5-1,0.5-1.6s-0.2-1.2-0.5-1.6c-0.4-0.4-0.9-0.6-1.5-0.6h-2.6v4.4h2.6C104.5,785.6,105,785.3,105.4,784.9    L105.4,784.9z"></path>
		<path class="st6" d="M120.8,792.6v-2.2H115v-2.2l3.4-9.2h3.1l-3.6,8.9h2.9v-3.8h2.8v3.8h1.3v2.5h-1.3v2.2H120.8z"></path>
	</g>
	<g class="st5">
		<path class="st6" d="M401,260.3c-1.5,0.3-2.8,0.5-4,0.5s-2.1-0.1-2.9-0.4c-0.7-0.3-1.3-0.8-1.7-1.4c-0.4-0.6-0.7-1.4-0.8-2.3    c-0.2-0.9-0.2-2-0.2-3.3c0-2.8,0.4-4.7,1.2-5.8c0.8-1.1,2.2-1.6,4.3-1.6c1.2,0,2.6,0.2,4.2,0.6l-0.1,2.3c-1.4-0.2-2.5-0.3-3.5-0.3    c-0.9,0-1.6,0.1-2,0.4c-0.4,0.2-0.7,0.7-0.9,1.4c-0.2,0.7-0.3,1.9-0.3,3.5c0,1.7,0.2,2.8,0.6,3.4s1.2,1,2.3,1s2.4-0.1,3.7-0.3    L401,260.3z"></path>
		<path class="st6" d="M411.5,260.5v-5.9h-5.3v5.9h-2.9v-14.3h2.9v5.8h5.3v-5.8h2.9v14.3H411.5z"></path>
		<path class="st6" d="M416.3,260.5l3.2-14.3h5.5l3.2,14.3h-2.9l-0.6-2.6h-5l-0.6,2.6H416.3z M421.8,248.6l-1.4,6.8h3.9l-1.4-6.8    H421.8z"></path>
		<path class="st6" d="M430.2,260.5v-14.3h4.9l2.5,10.4l2.5-10.4h4.9v14.3h-2.9v-11h-0.3l-2.8,10.4h-2.9l-2.8-10.4H433v11H430.2z"></path>
		<path class="st6" d="M453.5,256.3h-2.4v4.2h-2.9v-14.3h5.2c3.4,0,5.1,1.7,5.1,5c0,1.7-0.4,2.9-1.3,3.8    C456.4,255.9,455.1,256.3,453.5,256.3z M451.1,253.9h2.3c1.4,0,2.2-0.9,2.2-2.7c0-0.9-0.2-1.5-0.5-1.9s-0.9-0.6-1.6-0.6h-2.3v5.2    H451.1z"></path>
		<path class="st6" d="M460.6,260.5v-14.3h2.9v14.3H460.6z"></path>
		<path class="st6" d="M476.5,259c-0.9,1.2-2.4,1.8-4.6,1.8s-3.7-0.6-4.6-1.8c-0.9-1.2-1.3-3-1.3-5.6c0-2.5,0.4-4.4,1.3-5.6    c0.9-1.2,2.4-1.8,4.6-1.8s3.7,0.6,4.6,1.8s1.3,3.1,1.3,5.6S477.3,257.8,476.5,259z M469.5,257.1c0.4,0.7,1.2,1.1,2.3,1.1    c1.1,0,1.9-0.4,2.3-1.1s0.6-2,0.6-3.7s-0.2-3-0.6-3.8s-1.2-1.2-2.3-1.2s-1.9,0.4-2.3,1.2s-0.6,2-0.6,3.8    C468.9,255.2,469.1,256.4,469.5,257.1z"></path>
		<path class="st6" d="M480.3,260.5v-14.3h4.9l3.4,11.8h0.2v-11.8h2.9v14.3h-4.8l-3.6-11.8h-0.2v11.8H480.3z"></path>
		<path class="st6" d="M499.2,248.5c-1.5,0-2.3,0.5-2.3,1.5c0,0.4,0.2,0.8,0.6,1s1.3,0.6,2.7,1c1.4,0.4,2.4,1,2.9,1.5    c0.6,0.6,0.8,1.4,0.8,2.6c0,1.5-0.5,2.6-1.4,3.4s-2.1,1.2-3.6,1.2c-1.1,0-2.4-0.2-4-0.5l-0.8-0.1l0.3-2.2c1.9,0.3,3.3,0.4,4.3,0.4    c1.5,0,2.2-0.6,2.2-1.8c0-0.4-0.2-0.8-0.5-1c-0.3-0.3-1-0.5-2-0.8c-1.6-0.5-2.8-1-3.4-1.6c-0.7-0.6-1-1.5-1-2.7    c0-1.4,0.4-2.5,1.3-3.2s2.1-1,3.6-1c1,0,2.4,0.1,3.9,0.4l0.8,0.1l-0.2,2.3C501.4,248.6,500,248.5,499.2,248.5z"></path>
		<path class="st6" d="M401,281.3c-1.5,0.3-2.8,0.5-4,0.5s-2.1-0.1-2.9-0.4c-0.7-0.3-1.3-0.8-1.7-1.4c-0.4-0.6-0.7-1.4-0.8-2.3    c-0.2-0.9-0.2-2-0.2-3.3c0-2.8,0.4-4.7,1.2-5.8c0.8-1.1,2.2-1.6,4.3-1.6c1.2,0,2.6,0.2,4.2,0.6l-0.1,2.3c-1.4-0.2-2.5-0.3-3.5-0.3    c-0.9,0-1.6,0.1-2,0.4c-0.4,0.2-0.7,0.7-0.9,1.4c-0.2,0.7-0.3,1.9-0.3,3.5c0,1.7,0.2,2.8,0.6,3.4s1.2,1,2.3,1s2.4-0.1,3.7-0.3    L401,281.3z"></path>
		<path class="st6" d="M411.5,281.5h-8.1v-14.3h2.9v11.7h5.2V281.5z"></path>
		<path class="st6" d="M415.9,276.7c0,1.7,0.8,2.5,2.5,2.5s2.5-0.8,2.5-2.5v-9.5h2.9v9.5c0,1.8-0.5,3-1.4,3.9    c-0.9,0.8-2.3,1.2-4.1,1.2c-1.8,0-3.2-0.4-4.1-1.2c-0.9-0.8-1.4-2.1-1.4-3.9v-9.5h2.9v9.5H415.9z"></path>
		<path class="st6" d="M426.9,267.2h5.6c1.5,0,2.6,0.3,3.3,0.9c0.7,0.6,1.1,1.6,1.1,2.9c0,0.8-0.1,1.4-0.4,1.9    c-0.2,0.5-0.6,0.9-1.2,1.2c0.6,0.3,1.1,0.7,1.4,1.2s0.5,1.2,0.5,2.1c0,1.4-0.4,2.4-1.2,3.1c-0.8,0.7-2,1-3.4,1h-5.7L426.9,267.2    L426.9,267.2z M432.3,269.7h-2.6v3.4h2.6c1.1,0,1.6-0.6,1.6-1.7C434,270.3,433.4,269.7,432.3,269.7z M432.4,275.5h-2.6v3.5h2.6    c0.6,0,1.1-0.1,1.4-0.4s0.5-0.7,0.5-1.4C434.3,276.1,433.6,275.5,432.4,275.5z"></path>
	</g>
	<g class="st5">
		<path class="st6" d="M306.8,466.9h-2.4v4.2h-2.9v-14.3h5.2c3.4,0,5.1,1.7,5.1,5c0,1.7-0.4,2.9-1.3,3.8    C309.7,466.5,308.4,466.9,306.8,466.9z M304.4,464.4h2.3c1.4,0,2.2-0.9,2.2-2.7c0-0.9-0.2-1.5-0.5-1.9s-0.9-0.6-1.6-0.6h-2.3v5.2    H304.4z"></path>
		<path class="st6" d="M312.3,471.1l3.2-14.3h5.5l3.2,14.3h-2.9l-0.6-2.6h-5l-0.6,2.6H312.3z M317.8,459.2l-1.4,6.8h3.9l-1.4-6.8    H317.8z"></path>
		<path class="st6" d="M330.9,471.1h-4.8v-14.3h4.8c1.2,0,2.2,0.1,3,0.4s1.4,0.7,1.9,1.3c0.4,0.6,0.7,1.3,0.9,2.1    c0.2,0.8,0.3,1.9,0.3,3.1s-0.1,2.4-0.2,3.2c-0.2,0.8-0.4,1.6-0.9,2.3c-0.4,0.7-1,1.1-1.9,1.4C333.2,470.9,332.2,471.1,330.9,471.1    z M334,465.4c0-0.4,0-1.1,0-1.9s0-1.4-0.1-1.9s-0.2-0.9-0.4-1.3c-0.2-0.4-0.5-0.7-0.9-0.8c-0.4-0.1-1-0.2-1.7-0.2H329v9.2h1.9    c1,0,1.8-0.3,2.3-0.8C333.6,467.3,333.9,466.5,334,465.4z"></path>
		<path class="st6" d="M344.3,471.1h-4.8v-14.3h4.8c1.2,0,2.2,0.1,3,0.4s1.4,0.7,1.9,1.3c0.4,0.6,0.7,1.3,0.9,2.1    c0.2,0.8,0.3,1.9,0.3,3.1s-0.1,2.4-0.2,3.2c-0.2,0.8-0.4,1.6-0.9,2.3c-0.4,0.7-1,1.1-1.9,1.4C346.6,470.9,345.6,471.1,344.3,471.1    z M347.4,465.4c0-0.4,0-1.1,0-1.9s0-1.4-0.1-1.9s-0.2-0.9-0.4-1.3c-0.2-0.4-0.5-0.7-0.9-0.8c-0.4-0.1-1-0.2-1.7-0.2h-1.9v9.2h1.9    c1,0,1.8-0.3,2.3-0.8C347,467.3,347.3,466.5,347.4,465.4z"></path>
		<path class="st6" d="M362.8,469.5c-0.9,1.2-2.4,1.8-4.6,1.8s-3.7-0.6-4.6-1.8c-0.9-1.2-1.3-3-1.3-5.6c0-2.5,0.4-4.4,1.3-5.6    s2.4-1.8,4.6-1.8s3.7,0.6,4.6,1.8c0.9,1.2,1.3,3.1,1.3,5.6C364.1,466.5,363.7,468.4,362.8,469.5z M355.9,467.7    c0.4,0.7,1.2,1.1,2.3,1.1c1.1,0,1.9-0.4,2.3-1.1s0.6-2,0.6-3.7s-0.2-3-0.6-3.8s-1.2-1.2-2.3-1.2s-1.9,0.4-2.3,1.2s-0.6,2-0.6,3.8    C355.3,465.7,355.5,467,355.9,467.7z"></path>
		<path class="st6" d="M375.7,470.8c-1.5,0.3-2.8,0.5-4,0.5s-2.1-0.1-2.9-0.4c-0.7-0.3-1.3-0.8-1.7-1.4c-0.4-0.6-0.7-1.4-0.8-2.3    c-0.2-0.9-0.2-2-0.2-3.3c0-2.8,0.4-4.7,1.2-5.8c0.8-1.1,2.2-1.6,4.3-1.6c1.2,0,2.6,0.2,4.2,0.6l-0.1,2.3c-1.4-0.2-2.5-0.3-3.5-0.3    c-0.9,0-1.6,0.1-2,0.4c-0.4,0.2-0.7,0.7-0.9,1.4c-0.2,0.7-0.3,1.9-0.3,3.5c0,1.7,0.2,2.8,0.6,3.4s1.2,1,2.3,1s2.4-0.1,3.7-0.3    L375.7,470.8z"></path>
		<path class="st6" d="M380.9,471.1H378v-14.3h2.9v6.3l1.9-0.2l2.4-6.1h3.3l-3.1,7.2l3.2,7.1h-3.3l-2.4-5.7l-1.9,0.2v5.5H380.9z"></path>
		<path class="st6" d="M310.6,491.8c-1.5,0.3-2.8,0.5-4,0.5s-2.1-0.1-2.9-0.4c-0.7-0.3-1.3-0.8-1.7-1.4c-0.4-0.6-0.7-1.4-0.8-2.3    c-0.2-0.9-0.2-2-0.2-3.3c0-2.8,0.4-4.7,1.2-5.8c0.8-1.1,2.2-1.6,4.3-1.6c1.2,0,2.6,0.2,4.2,0.6l-0.1,2.3c-1.4-0.2-2.5-0.3-3.5-0.3    c-0.9,0-1.6,0.1-2,0.4c-0.4,0.2-0.7,0.7-0.9,1.4c-0.2,0.7-0.3,1.9-0.3,3.5c0,1.7,0.2,2.8,0.6,3.4s1.2,1,2.3,1s2.4-0.1,3.7-0.3    L310.6,491.8z"></path>
		<path class="st6" d="M321.1,492.1H313v-14.3h2.9v11.7h5.2V492.1z"></path>
		<path class="st6" d="M325.5,487.3c0,1.7,0.8,2.5,2.5,2.5s2.5-0.8,2.5-2.5v-9.5h2.9v9.5c0,1.8-0.5,3-1.4,3.9    c-0.9,0.8-2.3,1.2-4.1,1.2c-1.8,0-3.2-0.4-4.1-1.2c-0.9-0.8-1.4-2.1-1.4-3.9v-9.5h2.9v9.5H325.5z"></path>
		<path class="st6" d="M336.5,477.8h5.6c1.5,0,2.6,0.3,3.3,0.9c0.7,0.6,1.1,1.6,1.1,2.9c0,0.8-0.1,1.4-0.4,1.9    c-0.2,0.5-0.6,0.9-1.2,1.2c0.6,0.3,1.1,0.7,1.4,1.2s0.5,1.2,0.5,2.1c0,1.4-0.4,2.4-1.2,3.1c-0.8,0.7-2,1-3.4,1h-5.7L336.5,477.8    L336.5,477.8z M341.9,480.3h-2.6v3.4h2.6c1.1,0,1.6-0.6,1.6-1.7C343.6,480.8,343,480.3,341.9,480.3z M342,486.1h-2.6v3.5h2.6    c0.6,0,1.1-0.1,1.4-0.4s0.5-0.7,0.5-1.4C343.9,486.7,343.2,486.1,342,486.1z"></path>
	</g>
</g>
<g id="Turns">
	<g>
		<path d="M228.9,5.9v9.8h-2.1V8.2l-2.1,1.2L223.8,8l3.2-2.1H228.9z"></path>
	</g>
	<g>
		<path d="M399.9,414.7h-6.4v-1.8l2.1-2.1c0.9-0.9,1.2-1.2,1.4-1.8c0.2-0.4,0.4-0.9,0.4-1.2s-0.2-0.9-0.4-1.1s-0.7-0.2-1.1-0.2    c-0.7,0-1.4,0-2.1,0.2h-0.4v-1.4c1.1-0.2,2-0.4,3-0.4c2.1,0,3.2,0.9,3.2,2.9c0,0.7-0.2,1.2-0.4,2c-0.2,0.7-0.9,1.2-1.8,2l-1.8,1.4    h4.1v1.5H399.9z"></path>
	</g>
	<g>
		<path d="M511.9,314.6c0.9-0.4,2-0.7,3-0.7s2,0.2,2.5,0.7c0.7,0.4,0.9,1.1,0.9,2.1s-0.4,1.8-1.1,2.1c0.4,0.2,0.9,0.4,1.1,0.9    c0.2,0.2,0.2,0.7,0.2,1.2c0,1.1-0.2,2-0.9,2.3c-0.4,0.4-1.2,0.9-2.5,0.9c-0.9,0-1.8-0.2-2.9-0.4l-0.4-0.2v-1.4    c1.1,0.2,2.1,0.2,2.9,0.2c1.1,0,1.4-0.4,1.4-1.2c0-0.4-0.2-0.7-0.4-0.9s-0.7-0.4-1.1-0.4h-2V318h2c0.4,0,0.7-0.2,0.9-0.4    s0.4-0.7,0.4-0.9c0-0.7-0.4-1.1-1.4-1.1c-0.7,0-1.4,0-2.1,0.2H512v-1.4h-0.1V314.6z"></path>
	</g>
	<g>
		<path d="M919.7,231.9v-1.8h-4.3v-1.4l2.3-6.6h2.3l-2.5,6.4h2.1v-2.9h2.1v2.9h0.9v1.8h-0.9v1.8L919.7,231.9L919.7,231.9z"></path>
	</g>
	<g>
		<path d="M1030.7,69.4v1.8h-4.5l-0.2,2.1c0.7-0.2,1.2-0.4,1.8-0.4c2.1,0,3.2,1.1,3.2,3c0,1.1-0.2,2-0.9,2.5    c-0.7,0.7-1.4,0.9-2.5,0.9c-0.4,0-1.1,0-1.4-0.2c-0.7,0-1.1-0.2-1.4-0.2l-0.7-0.2l0.2-1.4c1.2,0.2,2.1,0.2,3,0.2    c0.4,0,0.9-0.2,1.1-0.4s0.4-0.7,0.4-1.1s-0.2-0.9-0.4-1.1c-0.2-0.2-0.4-0.4-0.9-0.4c-0.7,0-1.2,0-1.8,0.2h-0.2l-1.2-0.2l0.2-5.3    h6.4L1030.7,69.4L1030.7,69.4z"></path>
	</g>
	<g>
		<path d="M1106,332.3c-1.1,0-2-0.2-2.9-0.2c-1.4,0-2.1,0.9-2.1,2.3h0.2c0.7-0.2,1.2-0.2,1.4-0.2c1.1,0,2,0.2,2.5,0.9    c0.7,0.4,0.9,1.2,0.9,2.3c0,1.1-0.2,2-0.9,2.5c-0.7,0.7-1.4,0.9-2.9,0.9c-1.2,0-2.1-0.4-2.9-1.2c-0.7-0.9-0.9-2.1-0.9-3.7    s0.4-3,1.1-3.7c0.7-0.9,1.8-1.2,3-1.2c0.9,0,1.8,0.2,2.5,0.4h0.4L1106,332.3z M1102.8,336c-0.4,0-0.9,0-1.4,0.2h-0.4    c0,1.8,0.7,2.5,1.8,2.5c0.4,0,0.9-0.2,1.1-0.4c0.2-0.2,0.4-0.7,0.4-1.1C1104.2,336.4,1103.9,336,1102.8,336z"></path>
	</g>
	<g>
		<path d="M1031.6,311.9v-2h6.4v2.3l-3.4,7.7l-2-0.7l3.4-7.3v-0.4L1031.6,311.9L1031.6,311.9z"></path>
	</g>
	<g>
		<path d="M932.5,457.9c0.7-0.4,1.4-0.7,2.5-0.7s2,0.2,2.5,0.7c0.7,0.4,1.1,1.1,1.1,2c0,0.7,0,1.1-0.2,1.2c-0.2,0.2-0.4,0.7-0.9,0.9    c0.4,0.4,0.9,0.7,0.9,1.1c0.2,0.4,0.2,0.9,0.2,1.2c0,1.1-0.4,1.8-1.1,2.1c-0.7,0.4-1.8,0.7-2.9,0.7c-2.5,0-3.7-0.9-3.7-2.9    c0-0.7,0-1.1,0.2-1.4c0.2-0.4,0.4-0.7,0.9-1.1c-0.4-0.4-0.7-0.7-0.9-1.1s-0.2-0.9-0.2-1.2C931.5,459,932,458.3,932.5,457.9z     M933.6,464.3c0,0.9,0.4,1.2,1.4,1.2s1.4-0.4,1.4-1.2c0-0.4-0.2-0.9-0.9-1.1h-1.2C934,463.3,933.6,463.6,933.6,464.3z M935.2,459    c-0.4,0-0.9,0-1.1,0.2s-0.4,0.4-0.4,0.9s0.2,0.9,0.7,1.1h1.2c0.4-0.4,0.7-0.7,0.7-1.1C936.6,459.4,935.9,459,935.2,459z"></path>
	</g>
	<g>
		<path d="M1026.8,609.6c1.2,0,2-0.9,2-2.3h-0.2c-0.7,0.2-1.2,0.4-1.4,0.4c-1.1,0-2-0.2-2.5-0.9s-0.9-1.2-0.9-2.3s0.4-2,1.1-2.3    c0.7-0.7,1.4-0.9,2.9-0.9s2.1,0.4,2.9,1.2c0.7,0.9,0.9,2.1,0.9,3.7c0,1.6-0.4,3-1.1,3.7c-0.7,0.9-1.8,1.2-3,1.2    c-0.9,0-1.8-0.2-2.5-0.4h-0.4l0.2-1.4C1025.2,609.5,1025.9,609.6,1026.8,609.6z M1027,605.9c0.4,0,0.9,0,1.4-0.2h0.2    c0-1.8-0.7-2.5-1.8-2.5c-0.4,0-0.9,0.2-1.1,0.4s-0.4,0.7-0.4,1.1C1025.7,605.5,1026.1,605.9,1027,605.9z"></path>
	</g>
	<g>
		<path d="M781.7,682.2v9.8h-2.1v-7.5l-2.1,1.2l-0.9-1.4l3.2-2.1H781.7z"></path>
		<path d="M785.3,683.3c0.7-0.9,1.4-1.2,2.9-1.2c1.2,0,2.1,0.4,2.9,1.2c0.7,0.9,1.1,2.1,1.1,3.7c0,1.8-0.2,3.2-0.9,3.7    c-0.7,0.9-1.4,1.1-2.9,1.1c-1.2,0-2.1-0.4-2.9-1.1c-0.7-0.9-0.9-2.1-0.9-3.7C784.2,685.4,784.7,684,785.3,683.3z M789.7,687    c0-1.2-0.2-2.1-0.4-2.5s-0.7-0.7-1.2-0.7c-0.7,0-1.1,0.2-1.2,0.9c-0.2,0.4-0.4,1.2-0.4,2.5c0,1.2,0.2,2.1,0.4,2.5s0.7,0.7,1.2,0.7    c0.7,0,1.1-0.2,1.2-0.7C789.5,689.1,789.7,688.3,789.7,687z"></path>
	</g>
	<g>
		<path d="M401.8,827.6v9.2h-1.9v-7.1l-2,1.3l-0.9-1.4l3.1-2H401.8z"></path>
		<path d="M410.7,836.8h-6v-1.6l2-2c0.7-0.7,1.2-1.3,1.5-1.7s0.4-0.8,0.4-1.2s-0.1-0.7-0.3-0.9s-0.6-0.3-1-0.3c-0.6,0-1.3,0.1-2,0.2    H405l-0.1-1.5c0.9-0.3,1.9-0.4,2.8-0.4c2,0,2.9,0.9,2.9,2.6c0,0.7-0.1,1.3-0.4,1.8s-0.8,1.1-1.6,1.8l-1.6,1.5h3.8L410.7,836.8    L410.7,836.8L410.7,836.8z"></path>
	</g>
	<g>
		<path d="M394.9,552.3v9.2H393v-7.1l-2,1.3l-0.9-1.4l3.1-2H394.9z"></path>
		<path d="M397.8,552.7c0.9-0.3,1.8-0.5,2.9-0.5s1.8,0.2,2.3,0.6s0.7,1.1,0.7,2s-0.4,1.6-1.1,2.1c0.4,0.2,0.8,0.5,1,0.8    s0.3,0.7,0.3,1.2c0,1-0.2,1.7-0.7,2.2s-1.3,0.7-2.4,0.7c-0.8,0-1.7-0.1-2.6-0.4l-0.5-0.1l0.1-1.5c1,0.2,1.9,0.3,2.6,0.3    c1,0,1.4-0.4,1.4-1.2c0-0.3-0.1-0.6-0.4-0.8c-0.2-0.2-0.6-0.3-1-0.3h-1.7v-1.6h1.9c0.3,0,0.6-0.1,0.8-0.4c0.2-0.3,0.4-0.6,0.4-0.9    c0-0.7-0.5-1-1.4-1c-0.6,0-1.3,0.1-2.1,0.2l-0.4,0.1L397.8,552.7z"></path>
	</g>
	<g>
		<path d="M287.1,788.3v9.2h-2v-7.1l-2,1.3l-0.9-1.4l3.1-2H287.1z"></path>
		<path d="M293.5,797.5V796h-3.9v-1.5l2.3-6.2h2.1l-2.5,6h2v-2.6h1.9v2.6h0.9v1.7h-0.9v1.5H293.5z"></path>
	</g>
	<g>
		<path d="M783,859.6v9.2h-1.9v-7.1l-2,1.3l-0.9-1.4l3.1-2H783z"></path>
		<path d="M790.8,859.6v9.2h-1.9v-7.1l-2,1.3l-0.9-1.4l3.1-2H790.8z"></path>
	</g>
</g>
</g></svg>