<?xml version="1.0" standalone="no"?>
<!DOCTYPE svg PUBLIC "-//W3C//DTD SVG 20010904//EN"
 "http://www.w3.org/TR/2001/REC-SVG-20010904/DTD/svg10.dtd">
<svg version="1.0" xmlns="http://www.w3.org/2000/svg"
 width="350.000000px" height="30.000000px" viewBox="0 0 1223.000000 104.000000"
 preserveAspectRatio="xMidYMid meet">
<g transform="translate(0.000000,104.000000) scale(0.100000,-0.100000)"
fill="#000000" stroke="none">
<path d="M3960 910 l0 -60 95 0 95 0 0 60 0 60 -95 0 -95 0 0 -60z"/>
<path d="M7235 937 c-45 -25 -81 -73 -95 -126 -5 -20 -18 -142 -30 -271 -11
-129 -23 -259 -26 -287 l-6 -53 95 0 96 0 5 33 c5 33 36 464 36 507 0 34 16
58 30 44 5 -5 26 -102 46 -215 40 -235 47 -262 82 -308 52 -69 167 -92 252
-49 78 40 94 79 136 335 55 331 65 329 88 -22 9 -137 19 -267 22 -287 l6 -38
94 0 c52 0 94 2 94 5 0 44 -53 590 -60 616 -14 53 -51 102 -90 121 -48 24
-140 24 -188 -1 -84 -43 -104 -95 -144 -362 -22 -143 -37 -213 -46 -216 -7 -3
-15 -3 -18 0 -3 3 -21 101 -40 218 -33 205 -55 281 -92 323 -50 56 -176 73
-247 33z"/>
<path d="M995 939 c-97 -11 -148 -25 -219 -61 -100 -50 -139 -85 -543 -480
l-181 -178 209 0 210 0 172 164 c195 186 256 237 310 260 73 30 198 36 743 36
l542 0 138 135 139 134 -725 -1 c-399 0 -756 -4 -795 -9z"/>
<path d="M2225 585 l-370 -364 225 0 225 0 370 364 370 364 -225 0 -225 0
-370 -364z"/>
<path d="M3099 943 c-1 -5 -2 -41 -3 -80 l-1 -73 142 0 143 0 0 -295 0 -295
100 0 100 0 0 295 0 295 145 0 145 0 0 80 0 80 -385 0 c-212 0 -386 -3 -386
-7z"/>
<path d="M4900 575 l0 -375 95 0 95 0 0 115 0 115 28 -6 c36 -9 47 -19 133
-129 l74 -94 114 -1 c108 0 113 1 99 18 -111 130 -226 269 -231 279 -5 7 36
64 100 140 60 70 114 136 122 146 13 16 7 17 -95 16 l-109 0 -80 -102 c-74
-94 -83 -102 -118 -105 l-37 -3 0 180 0 181 -95 0 -95 0 0 -375z"/>
<path d="M6370 860 l0 -60 -50 0 -50 0 0 -69 0 -70 43 -3 42 -3 5 -165 c3
-113 9 -173 19 -190 42 -77 102 -100 263 -100 l109 0 -3 72 -3 73 -93 5 c-67
4 -95 9 -102 20 -6 8 -9 76 -8 150 l3 135 103 3 102 3 0 69 0 70 -105 0 -105
0 0 60 0 60 -85 0 -85 0 0 -60z"/>
<path d="M5783 800 c-54 -11 -91 -31 -127 -66 -51 -52 -60 -80 -64 -206 -5
-141 10 -197 66 -250 67 -64 101 -72 335 -76 l208 -4 -3 74 -3 73 -192 5
c-105 3 -193 7 -196 10 -11 13 -27 50 -27 64 0 14 27 16 215 16 l215 0 0 73
c-1 147 -34 218 -124 262 -47 23 -71 28 -158 31 -57 2 -122 -1 -145 -6z m220
-143 c10 -6 20 -29 24 -50 l6 -37 -128 0 -128 0 6 37 c4 21 14 44 24 50 23 17
173 17 196 0z"/>
<path d="M11273 800 c-54 -11 -91 -31 -127 -66 -51 -52 -60 -80 -64 -206 -6
-180 26 -246 143 -300 46 -21 67 -23 258 -26 l208 -4 -3 74 -3 73 -192 5
c-105 3 -193 7 -196 10 -11 13 -27 50 -27 64 0 14 27 16 215 16 l215 0 0 73
c-1 147 -34 218 -124 262 -47 23 -71 28 -158 31 -57 2 -122 -1 -145 -6z m220
-143 c10 -6 20 -29 24 -50 l6 -37 -128 0 -128 0 6 37 c4 21 14 44 24 50 23 17
173 17 196 0z"/>
<path d="M3960 500 l0 -300 95 0 95 0 0 300 0 300 -95 0 -95 0 0 -300z"/>
<path d="M4440 786 c-69 -18 -117 -52 -148 -104 -26 -45 -27 -53 -27 -183 0
-134 0 -136 30 -185 24 -37 45 -56 90 -79 57 -29 62 -30 232 -33 l173 -4 0 76
0 76 -144 0 c-192 0 -191 -1 -191 144 0 94 2 108 21 126 29 30 81 39 207 40
l107 0 0 70 0 70 -152 -1 c-87 0 -173 -6 -198 -13z"/>
<path d="M8250 730 l0 -70 155 0 c85 0 155 -3 155 -7 -1 -5 -44 -37 -97 -72
-189 -127 -223 -164 -223 -243 0 -43 31 -93 72 -115 29 -16 65 -18 281 -21
l247 -3 0 178 c0 193 -10 258 -50 316 -58 84 -135 107 -372 107 l-168 0 0 -70z
m410 -285 l0 -95 -105 0 c-137 0 -137 10 -3 113 55 42 102 77 104 77 2 0 4
-43 4 -95z"/>
<path d="M8950 500 l0 -300 95 0 95 0 0 226 0 226 101 -4 c144 -6 139 4 139
-249 l0 -199 96 0 96 0 -4 223 c-3 215 -4 223 -28 267 -28 49 -73 84 -129 100
-20 5 -132 10 -248 10 l-213 0 0 -300z"/>
<path d="M9660 730 l0 -70 155 0 c85 0 155 -3 155 -7 -1 -5 -44 -37 -97 -72
-189 -127 -223 -164 -223 -243 0 -43 31 -93 72 -115 29 -16 65 -18 281 -21
l247 -3 0 178 c0 193 -10 258 -50 316 -58 84 -135 107 -372 107 l-168 0 0 -70z
m410 -285 l0 -95 -105 0 c-137 0 -137 10 -3 113 55 42 102 77 104 77 2 0 4
-43 4 -95z"/>
<path d="M10469 772 c-81 -42 -112 -98 -117 -210 -5 -105 8 -160 51 -209 54
-62 92 -73 255 -73 l142 0 0 -23 c0 -13 -9 -32 -21 -43 -19 -17 -41 -19 -205
-22 l-184 -4 0 -70 0 -70 213 5 c142 3 225 9 251 18 55 19 111 75 125 124 7
25 11 147 11 323 l0 282 -234 0 -234 0 -53 -28z m331 -243 l0 -121 -105 4
c-93 3 -107 6 -127 26 -20 19 -23 33 -23 96 0 109 9 116 147 116 l108 0 0
-121z"/>
<path d="M11936 785 c-49 -17 -93 -59 -117 -110 -16 -35 -19 -67 -19 -257 l0
-218 95 0 95 0 0 208 c0 114 4 213 9 220 11 18 73 31 149 32 l62 0 0 70 0 70
-117 0 c-74 -1 -133 -6 -157 -15z"/>
<path d="M1095 624 c-80 -10 -137 -28 -179 -58 -41 -29 -356 -332 -356 -342 0
-2 86 -4 192 -4 l191 0 68 65 c36 35 80 70 95 77 21 9 143 13 430 16 l401 4
124 124 124 124 -530 -1 c-292 -1 -543 -4 -560 -5z"/>
</g>
</svg>
